<svg width="40" height="40" viewBox="0 0 40 40" fill="none" xmlns="http://www.w3.org/2000/svg">
<g clip-path="url(#clip0_8777_291018)">
<path d="M0 16.6C0 10.4324 0 7.34855 1.31368 5.04541C2.201 3.48979 3.48979 2.201 5.04541 1.31368C7.34855 0 10.4324 0 16.6 0H23.4C29.5676 0 32.6515 0 34.9546 1.31368C36.5102 2.201 37.799 3.48979 38.6863 5.04541C40 7.34855 40 10.4324 40 16.6V23.4C40 29.5676 40 32.6515 38.6863 34.9546C37.799 36.5102 36.5102 37.799 34.9546 38.6863C32.6515 40 29.5676 40 23.4 40H16.6C10.4324 40 7.34855 40 5.04541 38.6863C3.48979 37.799 2.201 36.5102 1.31368 34.9546C0 32.6515 0 29.5676 0 23.4V16.6Z" fill="#47A1FF" fill-opacity="0.1"/>
<path d="M0.5 16.6C0.5 13.5071 0.50047 11.2205 0.662209 9.41821C0.823342 7.62271 1.14145 6.35655 1.748 5.29314C2.59095 3.8153 3.8153 2.59095 5.29314 1.748C6.35655 1.14145 7.62271 0.823342 9.41821 0.662209C11.2205 0.50047 13.5071 0.5 16.6 0.5H23.4C26.4929 0.5 28.7795 0.50047 30.5818 0.662209C32.3773 0.823342 33.6435 1.14145 34.7069 1.748C36.1847 2.59095 37.4091 3.8153 38.252 5.29314C38.8586 6.35655 39.1767 7.62271 39.3378 9.41821C39.4995 11.2205 39.5 13.5071 39.5 16.6V23.4C39.5 26.4929 39.4995 28.7795 39.3378 30.5818C39.1767 32.3773 38.8586 33.6435 38.252 34.7069C37.4091 36.1847 36.1847 37.4091 34.7069 38.252C33.6435 38.8586 32.3773 39.1767 30.5818 39.3378C28.7795 39.4995 26.4929 39.5 23.4 39.5H16.6C13.5071 39.5 11.2205 39.4995 9.41821 39.3378C7.62271 39.1767 6.35655 38.8586 5.29314 38.252C3.8153 37.4091 2.59095 36.1847 1.748 34.7069C1.14145 33.6435 0.823342 32.3773 0.662209 30.5818C0.50047 28.7795 0.5 26.4929 0.5 23.4V16.6Z" stroke="#47A1FF" stroke-opacity="0.1"/>
<path d="M18.2 14.6C18.2 16.5882 16.5882 18.2 14.6 18.2C12.6118 18.2 11 16.5882 11 14.6C11 12.6118 12.6118 11 14.6 11C16.5882 11 18.2 12.6118 18.2 14.6Z" fill="#3396FF"/>
<path d="M29 14.6C29 16.5882 27.3882 18.2 25.4 18.2C23.4118 18.2 21.8 16.5882 21.8 14.6C21.8 12.6118 23.4118 11 25.4 11C27.3882 11 29 12.6118 29 14.6Z" fill="#3396FF"/>
<path d="M18.2 25.4C18.2 27.3882 16.5882 29 14.6 29C12.6118 29 11 27.3882 11 25.4C11 23.4118 12.6118 21.8 14.6 21.8C16.5882 21.8 18.2 23.4118 18.2 25.4Z" fill="#3396FF"/>
<path d="M29 25.4C29 27.3882 27.3882 29 25.4 29C23.4118 29 21.8 27.3882 21.8 25.4C21.8 23.4118 23.4118 21.8 25.4 21.8C27.3882 21.8 29 23.4118 29 25.4Z" fill="#3396FF"/>
</g>
<defs>
<clipPath id="clip0_8777_291018">
<rect width="40" height="40" fill="white"/>
</clipPath>
</defs>
</svg>
