<svg width="40" height="40" viewBox="0 0 40 40" fill="none" xmlns="http://www.w3.org/2000/svg">
<path d="M0 20C0 12.5231 0 8.78461 1.6077 6C2.66092 4.17577 4.17577 2.66092 6 1.6077C8.78461 0 12.5231 0 20 0C27.4769 0 31.2154 0 34 1.6077C35.8242 2.66092 37.3391 4.17577 38.3923 6C40 8.78461 40 12.5231 40 20C40 27.4769 40 31.2154 38.3923 34C37.3391 35.8242 35.8242 37.3391 34 38.3923C31.2154 40 27.4769 40 20 40C12.5231 40 8.78461 40 6 38.3923C4.17577 37.3391 2.66092 35.8242 1.6077 34C0 31.2154 0 27.4769 0 20Z" fill="#47A1FF" fill-opacity="0.1"/>
<path d="M23 28H23.9946V28C23.9996 28 24.0021 28 24.0042 28C26.2101 27.9977 27.9977 26.2101 28 24.0042C28 24.0021 28 23.9996 28 23.9946V23M17 28H16C13.7909 28 12 26.2091 12 24V24V23M17 12H15.9946V12C13.7885 12 12 13.7885 12 15.9946V17M23 12H24C26.2091 12 28 13.7909 28 16V16V17" stroke="white" stroke-width="2" stroke-linecap="round" stroke-linejoin="round"/>
<path d="M15.25 17.25C15.25 16.785 15.25 16.5525 15.3011 16.3618C15.4398 15.8441 15.8441 15.4398 16.3618 15.3011C16.5525 15.25 16.785 15.25 17.25 15.25C17.715 15.25 17.9475 15.25 18.1382 15.3011C18.6559 15.4398 19.0602 15.8441 19.1989 16.3618C19.25 16.5525 19.25 16.785 19.25 17.25C19.25 17.715 19.25 17.9475 19.1989 18.1382C19.0602 18.6559 18.6559 19.0602 18.1382 19.1989C17.9475 19.25 17.715 19.25 17.25 19.25C16.785 19.25 16.5525 19.25 16.3618 19.1989C15.8441 19.0602 15.4398 18.6559 15.3011 18.1382C15.25 17.9475 15.25 17.715 15.25 17.25Z" fill="white"/>
<path d="M20.75 17.25C20.75 16.785 20.75 16.5525 20.8011 16.3618C20.9398 15.8441 21.3441 15.4398 21.8618 15.3011C22.0525 15.25 22.285 15.25 22.75 15.25C23.215 15.25 23.4475 15.25 23.6382 15.3011C24.1559 15.4398 24.5602 15.8441 24.6989 16.3618C24.75 16.5525 24.75 16.785 24.75 17.25C24.75 17.715 24.75 17.9475 24.6989 18.1382C24.5602 18.6559 24.1559 19.0602 23.6382 19.1989C23.4475 19.25 23.215 19.25 22.75 19.25C22.285 19.25 22.0525 19.25 21.8618 19.1989C21.3441 19.0602 20.9398 18.6559 20.8011 18.1382C20.75 17.9475 20.75 17.715 20.75 17.25Z" fill="white"/>
<path d="M15.25 22.75C15.25 22.285 15.25 22.0525 15.3011 21.8618C15.4398 21.3441 15.8441 20.9398 16.3618 20.8011C16.5525 20.75 16.785 20.75 17.25 20.75C17.715 20.75 17.9475 20.75 18.1382 20.8011C18.6559 20.9398 19.0602 21.3441 19.1989 21.8618C19.25 22.0525 19.25 22.285 19.25 22.75C19.25 23.215 19.25 23.4475 19.1989 23.6382C19.0602 24.1559 18.6559 24.5602 18.1382 24.6989C17.9475 24.75 17.715 24.75 17.25 24.75C16.785 24.75 16.5525 24.75 16.3618 24.6989C15.8441 24.5602 15.4398 24.1559 15.3011 23.6382C15.25 23.4475 15.25 23.215 15.25 22.75Z" fill="white"/>
<path d="M20.75 22.75C20.75 22.285 20.75 22.0525 20.8011 21.8618C20.9398 21.3441 21.3441 20.9398 21.8618 20.8011C22.0525 20.75 22.285 20.75 22.75 20.75C23.215 20.75 23.4475 20.75 23.6382 20.8011C24.1559 20.9398 24.5602 21.3441 24.6989 21.8618C24.75 22.0525 24.75 22.285 24.75 22.75C24.75 23.215 24.75 23.4475 24.6989 23.6382C24.5602 24.1559 24.1559 24.5602 23.6382 24.6989C23.4475 24.75 23.215 24.75 22.75 24.75C22.285 24.75 22.0525 24.75 21.8618 24.6989C21.3441 24.5602 20.9398 24.1559 20.8011 23.6382C20.75 23.4475 20.75 23.215 20.75 22.75Z" fill="white"/>
<path d="M13 15.9946C13 14.3407 14.3407 13 15.9946 13H17C17.5523 13 18 12.5523 18 12C18 11.4477 17.5523 11 17 11H15.9946C13.2362 11 11 13.2362 11 15.9946V17C11 17.5523 11.4477 18 12 18C12.5523 18 13 17.5523 13 17V15.9946Z" fill="#47A1FF"/>
<path d="M23 11C22.4477 11 22 11.4477 22 12C22 12.5523 22.4477 13 23 13H24C25.6569 13 27 14.3431 27 16V17C27 17.5523 27.4477 18 28 18C28.5523 18 29 17.5523 29 17V16C29 13.2386 26.7614 11 24 11H23Z" fill="#47A1FF"/>
<path d="M13 23C13 22.4477 12.5523 22 12 22C11.4477 22 11 22.4477 11 23V24C11 26.7614 13.2386 29 16 29H17C17.5523 29 18 28.5523 18 28C18 27.4477 17.5523 27 17 27H16C14.3431 27 13 25.6569 13 24V23Z" fill="#47A1FF"/>
<path d="M29 23C29 22.4477 28.5523 22 28 22C27.4477 22 27 22.4477 27 23L27 24.0032C26.9983 25.6575 25.6575 26.9983 24.0032 27L23 27C22.4477 27 22 27.4477 22 28C22 28.5523 22.4477 29 23 29L24.0053 29C26.7626 28.9971 28.9971 26.7626 29 24.0053L29 23Z" fill="#47A1FF"/>
<path d="M15.3011 16.3618C15.25 16.5525 15.25 16.785 15.25 17.25C15.25 17.715 15.25 17.9475 15.3011 18.1382C15.4398 18.6559 15.8441 19.0602 16.3618 19.1989C16.5525 19.25 16.785 19.25 17.25 19.25C17.715 19.25 17.9475 19.25 18.1382 19.1989C18.6559 19.0602 19.0602 18.6559 19.1989 18.1382C19.25 17.9475 19.25 17.715 19.25 17.25C19.25 16.785 19.25 16.5525 19.1989 16.3618C19.0602 15.8441 18.6559 15.4398 18.1382 15.3011C17.9475 15.25 17.715 15.25 17.25 15.25C16.785 15.25 16.5525 15.25 16.3618 15.3011C15.8441 15.4398 15.4398 15.8441 15.3011 16.3618Z" fill="#47A1FF"/>
<path d="M20.8011 16.3618C20.75 16.5525 20.75 16.785 20.75 17.25C20.75 17.715 20.75 17.9475 20.8011 18.1382C20.9398 18.6559 21.3441 19.0602 21.8618 19.1989C22.0525 19.25 22.285 19.25 22.75 19.25C23.215 19.25 23.4475 19.25 23.6382 19.1989C24.1559 19.0602 24.5602 18.6559 24.6989 18.1382C24.75 17.9475 24.75 17.715 24.75 17.25C24.75 16.785 24.75 16.5525 24.6989 16.3618C24.5602 15.8441 24.1559 15.4398 23.6382 15.3011C23.4475 15.25 23.215 15.25 22.75 15.25C22.285 15.25 22.0525 15.25 21.8618 15.3011C21.3441 15.4398 20.9398 15.8441 20.8011 16.3618Z" fill="#47A1FF"/>
<path d="M15.25 22.75C15.25 22.285 15.25 22.0525 15.3011 21.8618C15.4398 21.3441 15.8441 20.9398 16.3618 20.8011C16.5525 20.75 16.785 20.75 17.25 20.75C17.715 20.75 17.9475 20.75 18.1382 20.8011C18.6559 20.9398 19.0602 21.3441 19.1989 21.8618C19.25 22.0525 19.25 22.285 19.25 22.75C19.25 23.215 19.25 23.4475 19.1989 23.6382C19.0602 24.1559 18.6559 24.5602 18.1382 24.6989C17.9475 24.75 17.715 24.75 17.25 24.75C16.785 24.75 16.5525 24.75 16.3618 24.6989C15.8441 24.5602 15.4398 24.1559 15.3011 23.6382C15.25 23.4475 15.25 23.215 15.25 22.75Z" fill="#47A1FF"/>
<path d="M20.8011 21.8618C20.75 22.0525 20.75 22.285 20.75 22.75C20.75 23.215 20.75 23.4475 20.8011 23.6382C20.9398 24.1559 21.3441 24.5602 21.8618 24.6989C22.0525 24.75 22.285 24.75 22.75 24.75C23.215 24.75 23.4475 24.75 23.6382 24.6989C24.1559 24.5602 24.5602 24.1559 24.6989 23.6382C24.75 23.4475 24.75 23.215 24.75 22.75C24.75 22.285 24.75 22.0525 24.6989 21.8618C24.5602 21.3441 24.1559 20.9398 23.6382 20.8011C23.4475 20.75 23.215 20.75 22.75 20.75C22.285 20.75 22.0525 20.75 21.8618 20.8011C21.3441 20.9398 20.9398 21.3441 20.8011 21.8618Z" fill="#47A1FF"/>
<path d="M0.5 20C0.5 16.2523 0.500479 13.475 0.698921 11.2855C0.89674 9.10288 1.28812 7.55352 2.04071 6.25C3.05004 4.50178 4.50178 3.05004 6.25 2.04071C7.55352 1.28812 9.10288 0.89674 11.2855 0.698921C13.475 0.500479 16.2523 0.5 20 0.5C23.7477 0.5 26.525 0.500479 28.7145 0.698921C30.8971 0.89674 32.4465 1.28812 33.75 2.04071C35.4982 3.05004 36.95 4.50178 37.9593 6.25C38.7119 7.55352 39.1033 9.10288 39.3011 11.2855C39.4995 13.475 39.5 16.2523 39.5 20C39.5 23.7477 39.4995 26.525 39.3011 28.7145C39.1033 30.8971 38.7119 32.4465 37.9593 33.75C36.95 35.4982 35.4982 36.95 33.75 37.9593C32.4465 38.7119 30.8971 39.1033 28.7145 39.3011C26.525 39.4995 23.7477 39.5 20 39.5C16.2523 39.5 13.475 39.4995 11.2855 39.3011C9.10288 39.1033 7.55352 38.7119 6.25 37.9593C4.50178 36.95 3.05004 35.4982 2.04071 33.75C1.28812 32.4465 0.89674 30.8971 0.698921 28.7145C0.500479 26.525 0.5 23.7477 0.5 20Z" stroke="#47A1FF" stroke-opacity="0.1"/>
</svg>
