<svg width="41" height="40" viewBox="0 0 41 40" fill="none" xmlns="http://www.w3.org/2000/svg">
<g clip-path="url(#clip0_9971_64960)">
<path d="M0.0174561 16.6C0.0174561 10.4324 0.0174561 7.34855 1.33114 5.04541C2.21845 3.48979 3.50725 2.201 5.06287 1.31368C7.366 0 10.4498 0 16.6175 0H23.4175C29.5851 0 32.6689 0 34.972 1.31368C36.5277 2.201 37.8165 3.48979 38.7038 5.04541C40.0175 7.34855 40.0175 10.4324 40.0175 16.6V23.4C40.0175 29.5676 40.0175 32.6515 38.7038 34.9546C37.8165 36.5102 36.5277 37.799 34.972 38.6863C32.6689 40 29.5851 40 23.4175 40H16.6175C10.4498 40 7.366 40 5.06287 38.6863C3.50725 37.799 2.21845 36.5102 1.33114 34.9546C0.0174561 32.6515 0.0174561 29.5676 0.0174561 23.4V16.6Z" fill="#47A1FF" fill-opacity="0.1"/>
<path d="M0.517456 16.6C0.517456 13.5071 0.517926 11.2205 0.679665 9.41821C0.840798 7.62271 1.1589 6.35655 1.76546 5.29314C2.6084 3.8153 3.83276 2.59095 5.3106 1.748C6.374 1.14145 7.64017 0.823342 9.43567 0.662209C11.2379 0.50047 13.5245 0.5 16.6175 0.5H23.4175C26.5104 0.5 28.797 0.50047 30.5992 0.662209C32.3947 0.823342 33.6609 1.14145 34.7243 1.748C36.2022 2.59095 37.4265 3.8153 38.2695 5.29314C38.876 6.35655 39.1941 7.62271 39.3552 9.41821C39.517 11.2205 39.5175 13.5071 39.5175 16.6V23.4C39.5175 26.4929 39.517 28.7795 39.3552 30.5818C39.1941 32.3773 38.876 33.6435 38.2695 34.7069C37.4265 36.1847 36.2022 37.4091 34.7243 38.252C33.6609 38.8586 32.3947 39.1767 30.5992 39.3378C28.797 39.4995 26.5104 39.5 23.4175 39.5H16.6175C13.5245 39.5 11.2379 39.4995 9.43567 39.3378C7.64017 39.1767 6.374 38.8586 5.3106 38.252C3.83276 37.4091 2.6084 36.1847 1.76546 34.7069C1.1589 33.6435 0.840798 32.3773 0.679665 30.5818C0.517926 28.7795 0.517456 26.4929 0.517456 23.4V16.6Z" stroke="#47A1FF" stroke-opacity="0.1"/>
<path fill-rule="evenodd" clip-rule="evenodd" d="M24.4043 10.4H15.6307C14.3376 10.4 13.2708 10.3999 12.4126 10.4929C11.5173 10.5899 10.7079 10.7996 9.99609 11.3167C9.5886 11.6128 9.23024 11.9711 8.93418 12.3786C8.41701 13.0904 8.20739 13.8998 8.11038 14.7952C8.01741 15.6533 8.01743 16.7201 8.01746 18.0132V19.0725C8.01743 20.3656 8.01741 21.4324 8.11038 22.2905C8.20739 23.1859 8.41701 23.9953 8.93418 24.7071C9.23024 25.1146 9.5886 25.4729 9.99609 25.769C10.7079 26.2862 11.5173 26.4958 12.4126 26.5928C13.2708 26.6858 14.3376 26.6857 15.6307 26.6857H24.4043C25.6973 26.6857 26.7641 26.6858 27.6223 26.5928C28.5176 26.4958 29.327 26.2862 30.0388 25.769C30.4463 25.4729 30.8047 25.1146 31.1007 24.7071C31.6179 23.9953 31.8275 23.1859 31.9245 22.2905C32.0175 21.4324 32.0175 20.3656 32.0175 19.0726V18.0132C32.0175 16.7201 32.0175 15.6533 31.9245 14.7952C31.8275 13.8998 31.6179 13.0904 31.1007 12.3786C30.8047 11.9711 30.4463 11.6128 30.0388 11.3167C29.327 10.7996 28.5176 10.5899 27.6223 10.4929C26.7641 10.3999 25.6973 10.4 24.4043 10.4ZM11.4068 13.2584C11.6413 13.088 11.98 12.9538 12.6711 12.879C13.3847 12.8016 14.3208 12.8 15.6975 12.8H24.3375C25.7141 12.8 26.6502 12.8016 27.3638 12.879C28.0549 12.9538 28.3936 13.088 28.6281 13.2584C28.8319 13.4064 29.0111 13.5856 29.1591 13.7893C29.3295 14.0238 29.4636 14.3625 29.5385 15.0537C29.6158 15.7673 29.6175 16.7034 29.6175 18.08V19.0057C29.6175 20.3823 29.6158 21.3184 29.5385 22.032C29.4636 22.7232 29.3295 23.0619 29.1591 23.2964C29.0111 23.5001 28.8319 23.6793 28.6281 23.8274C28.3936 23.9977 28.0549 24.1319 27.3638 24.2068C26.6502 24.2841 25.7141 24.2857 24.3375 24.2857H15.6975C14.3208 24.2857 13.3847 24.2841 12.6711 24.2068C11.98 24.1319 11.6413 23.9977 11.4068 23.8274C11.203 23.6793 11.0238 23.5001 10.8758 23.2964C10.7054 23.0619 10.5713 22.7232 10.4964 22.032C10.4191 21.3184 10.4175 20.3823 10.4175 19.0057V18.08C10.4175 16.7034 10.4191 15.7673 10.4964 15.0537C10.5713 14.3625 10.7054 14.0238 10.8758 13.7893C11.0238 13.5856 11.203 13.4064 11.4068 13.2584Z" fill="#47A1FF"/>
<path d="M15.3888 29.084C14.7261 29.084 14.1888 29.6213 14.1888 30.284C14.1888 30.9467 14.7261 31.484 15.3888 31.484H24.646C25.3087 31.484 25.846 30.9467 25.846 30.284C25.846 29.6213 25.3087 29.084 24.646 29.084H15.3888Z" fill="#47A1FF"/>
</g>
<defs>
<clipPath id="clip0_9971_64960">
<rect width="40" height="40" fill="white" transform="translate(0.0174561)"/>
</clipPath>
</defs>
</svg>
