<svg width="40" height="40" viewBox="0 0 40 40" fill="none" xmlns="http://www.w3.org/2000/svg">
<g clip-path="url(#clip0_9363_19778)">
<path d="M0 16.6C0 10.4324 0 7.34855 1.31368 5.04541C2.201 3.48979 3.48979 2.201 5.04541 1.31368C7.34855 0 10.4324 0 16.6 0H23.4C29.5676 0 32.6515 0 34.9546 1.31368C36.5102 2.201 37.799 3.48979 38.6863 5.04541C40 7.34855 40 10.4324 40 16.6V23.4C40 29.5676 40 32.6515 38.6863 34.9546C37.799 36.5102 36.5102 37.799 34.9546 38.6863C32.6515 40 29.5676 40 23.4 40H16.6C10.4324 40 7.34855 40 5.04541 38.6863C3.48979 37.799 2.201 36.5102 1.31368 34.9546C0 32.6515 0 29.5676 0 23.4V16.6Z" fill="#47A1FF"/>
<path d="M0.5 16.6C0.5 13.5071 0.50047 11.2205 0.662209 9.41821C0.823342 7.62271 1.14145 6.35655 1.748 5.29314C2.59095 3.8153 3.8153 2.59095 5.29314 1.748C6.35655 1.14145 7.62271 0.823342 9.41821 0.662209C11.2205 0.50047 13.5071 0.5 16.6 0.5H23.4C26.4929 0.5 28.7795 0.50047 30.5818 0.662209C32.3773 0.823342 33.6435 1.14145 34.7069 1.748C36.1847 2.59095 37.4091 3.8153 38.252 5.29314C38.8586 6.35655 39.1767 7.62271 39.3378 9.41821C39.4995 11.2205 39.5 13.5071 39.5 16.6V23.4C39.5 26.4929 39.4995 28.7795 39.3378 30.5818C39.1767 32.3773 38.8586 33.6435 38.252 34.7069C37.4091 36.1847 36.1847 37.4091 34.7069 38.252C33.6435 38.8586 32.3773 39.1767 30.5818 39.3378C28.7795 39.4995 26.4929 39.5 23.4 39.5H16.6C13.5071 39.5 11.2205 39.4995 9.41821 39.3378C7.62271 39.1767 6.35655 38.8586 5.29314 38.252C3.8153 37.4091 2.59095 36.1847 1.748 34.7069C1.14145 33.6435 0.823342 32.3773 0.662209 30.5818C0.50047 28.7795 0.5 26.4929 0.5 23.4V16.6Z" stroke="white" stroke-opacity="0.1"/>
<path d="M11.2262 14.4155C16.072 9.67108 23.9285 9.67108 28.7742 14.4155L29.3574 14.9865C29.5997 15.2237 29.5997 15.6083 29.3574 15.8455L27.3624 17.7988C27.2413 17.9174 27.0449 17.9174 26.9237 17.7988L26.1212 17.013C22.7407 13.7032 17.2598 13.7032 13.8792 17.013L13.0198 17.8545C12.8986 17.9731 12.7022 17.9731 12.5811 17.8545L10.5861 15.9013C10.3438 15.664 10.3438 15.2794 10.5861 15.0422L11.2262 14.4155ZM32.9001 18.455L34.6756 20.1935C34.9179 20.4307 34.9179 20.8153 34.6756 21.0525L26.6696 28.8912C26.4273 29.1285 26.0345 29.1285 25.7922 28.8912L20.1099 23.3279C20.0494 23.2686 19.9512 23.2686 19.8906 23.3279L14.2085 28.8912C13.9662 29.1285 13.5734 29.1285 13.3311 28.8913L5.32478 21.0524C5.08249 20.8152 5.08249 20.4306 5.32478 20.1934L7.10033 18.4549C7.34262 18.2177 7.73545 18.2177 7.97774 18.4549L13.66 24.0184C13.7206 24.0777 13.8188 24.0777 13.8794 24.0184L19.5614 18.4549C19.8037 18.2177 20.1965 18.2177 20.4388 18.4549L26.1211 24.0184C26.1817 24.0777 26.2799 24.0777 26.3405 24.0184L32.0227 18.455C32.265 18.2178 32.6578 18.2178 32.9001 18.455Z" fill="white"/>
<path d="M33.075 18.2764L34.8505 20.0148C35.193 20.3501 35.193 20.8959 34.8505 21.2311L26.8445 29.0699C26.505 29.4022 25.9567 29.4023 25.6173 29.0699L20.0003 23.5704L14.3834 29.0699C14.0439 29.4023 13.4957 29.4023 13.1562 29.0699L5.14988 21.231L33.075 18.2764ZM33.075 18.2764C32.7355 17.944 32.1873 17.944 31.8478 18.2764L26.2308 23.7759L20.6137 18.2763L20.4388 18.4549M33.075 18.2764L20.4388 18.4549M20.4388 18.4549L20.6137 18.2763C20.2742 17.9439 19.726 17.9439 19.3865 18.2763L13.7697 23.7759L20.4388 18.4549ZM28.9491 14.2368C24.0062 9.39729 15.9942 9.39729 11.0513 14.2368L10.4112 14.8636C10.0688 15.1988 10.0688 15.7446 10.4112 16.0799L12.4062 18.0332C12.6245 18.2469 12.9764 18.2469 13.1947 18.0332L14.0541 17.1917C17.3375 13.977 22.663 13.977 25.9463 17.1917L26.7488 17.9774C26.9672 18.1912 27.319 18.1912 27.5373 17.9774L29.5323 16.0242C29.8748 15.6889 29.8748 15.1431 29.5323 14.8078L28.9491 14.2368ZM26.1656 23.8398C26.1657 23.8396 26.1658 23.8395 26.1659 23.8394L26.1656 23.8398Z" stroke="#141414" stroke-opacity="0.1" stroke-width="0.5"/>
</g>
<defs>
<clipPath id="clip0_9363_19778">
<rect width="40" height="40" fill="white"/>
</clipPath>
</defs>
</svg>
