<svg width="41" height="40" viewBox="0 0 41 40" fill="none" xmlns="http://www.w3.org/2000/svg">
<g clip-path="url(#clip0_8087_37791)">
<path d="M0.0174561 16.6C0.0174561 10.4324 0.0174561 7.34855 1.33114 5.04541C2.21845 3.48979 3.50725 2.201 5.06287 1.31368C7.366 0 10.4498 0 16.6175 0H23.4175C29.5851 0 32.6689 0 34.972 1.31368C36.5277 2.201 37.8165 3.48979 38.7038 5.04541C40.0175 7.34855 40.0175 10.4324 40.0175 16.6V23.4C40.0175 29.5676 40.0175 32.6515 38.7038 34.9546C37.8165 36.5102 36.5277 37.799 34.972 38.6863C32.6689 40 29.5851 40 23.4175 40H16.6175C10.4498 40 7.366 40 5.06287 38.6863C3.50725 37.799 2.21845 36.5102 1.33114 34.9546C0.0174561 32.6515 0.0174561 29.5676 0.0174561 23.4V16.6Z" fill="#47A1FF" fill-opacity="0.1"/>
<path d="M0.517456 16.6C0.517456 13.5071 0.517926 11.2205 0.679665 9.41821C0.840798 7.62271 1.1589 6.35655 1.76546 5.29314C2.6084 3.8153 3.83276 2.59095 5.3106 1.748C6.374 1.14145 7.64017 0.823342 9.43567 0.662209C11.2379 0.50047 13.5245 0.5 16.6175 0.5H23.4175C26.5104 0.5 28.797 0.50047 30.5992 0.662209C32.3947 0.823342 33.6609 1.14145 34.7243 1.748C36.2022 2.59095 37.4265 3.8153 38.2695 5.29314C38.876 6.35655 39.1941 7.62271 39.3552 9.41821C39.517 11.2205 39.5175 13.5071 39.5175 16.6V23.4C39.5175 26.4929 39.517 28.7795 39.3552 30.5818C39.1941 32.3773 38.876 33.6435 38.2695 34.7069C37.4265 36.1847 36.2022 37.4091 34.7243 38.252C33.6609 38.8586 32.3947 39.1767 30.5992 39.3378C28.797 39.4995 26.5104 39.5 23.4175 39.5H16.6175C13.5245 39.5 11.2379 39.4995 9.43567 39.3378C7.64017 39.1767 6.374 38.8586 5.3106 38.252C3.83276 37.4091 2.6084 36.1847 1.76546 34.7069C1.1589 33.6435 0.840798 32.3773 0.679665 30.5818C0.517926 28.7795 0.517456 26.4929 0.517456 23.4V16.6Z" stroke="#47A1FF" stroke-opacity="0.1"/>
<path d="M11.6174 15.1935C11.6174 13.2089 13.2263 11.6 15.211 11.6H16.4174C17.0802 11.6 17.6174 11.0627 17.6174 10.4C17.6174 9.73724 17.0802 9.19998 16.4174 9.19998H15.211C11.9008 9.19998 9.21744 11.8834 9.21744 15.1935V16.4C9.21744 17.0627 9.7547 17.6 10.4174 17.6C11.0802 17.6 11.6174 17.0627 11.6174 16.4V15.1935Z" fill="#47A1FF"/>
<path d="M23.6174 9.19998C22.9547 9.19998 22.4174 9.73724 22.4174 10.4C22.4174 11.0627 22.9547 11.6 23.6174 11.6H24.8174C26.8057 11.6 28.4174 13.2118 28.4174 15.2V16.4C28.4174 17.0627 28.9547 17.6 29.6174 17.6C30.2802 17.6 30.8174 17.0627 30.8174 16.4V15.2C30.8174 11.8863 28.1311 9.19998 24.8174 9.19998H23.6174Z" fill="#47A1FF"/>
<path d="M11.6174 23.6C11.6174 22.9372 11.0802 22.4 10.4174 22.4C9.7547 22.4 9.21744 22.9372 9.21744 23.6V24.8C9.21744 28.1137 11.9037 30.8 15.2174 30.8H16.4174C17.0802 30.8 17.6174 30.2627 17.6174 29.6C17.6174 28.9372 17.0802 28.4 16.4174 28.4H15.2174C13.2292 28.4 11.6174 26.7882 11.6174 24.8V23.6Z" fill="#47A1FF"/>
<path d="M30.8174 23.6C30.8174 22.9372 30.2802 22.4 29.6174 22.4C28.9547 22.4 28.4174 22.9372 28.4174 23.6L28.4174 24.8038C28.4153 26.789 26.8065 28.3979 24.8212 28.4L23.6174 28.4C22.9547 28.4 22.4174 28.9372 22.4174 29.6C22.4174 30.2627 22.9547 30.8 23.6174 30.8L24.8238 30.8C28.1325 30.7965 30.8139 28.1151 30.8174 24.8063L30.8174 23.6Z" fill="#47A1FF"/>
<path d="M14.3788 15.6341C14.3174 15.863 14.3174 16.142 14.3174 16.7C14.3174 17.258 14.3174 17.537 14.3788 17.7659C14.5452 18.387 15.0304 18.8722 15.6516 19.0386C15.8805 19.1 16.1595 19.1 16.7174 19.1C17.2754 19.1 17.5544 19.1 17.7833 19.0386C18.4045 18.8722 18.8897 18.387 19.0561 17.7659C19.1174 17.537 19.1174 17.258 19.1174 16.7C19.1174 16.142 19.1174 15.863 19.0561 15.6341C18.8897 15.0129 18.4045 14.5278 17.7833 14.3613C17.5544 14.3 17.2754 14.3 16.7174 14.3C16.1595 14.3 15.8805 14.3 15.6516 14.3613C15.0304 14.5278 14.5452 15.0129 14.3788 15.6341Z" fill="#47A1FF"/>
<path d="M20.9788 15.6341C20.9174 15.863 20.9174 16.142 20.9174 16.7C20.9174 17.258 20.9174 17.537 20.9788 17.7659C21.1452 18.387 21.6304 18.8722 22.2516 19.0386C22.4805 19.1 22.7595 19.1 23.3174 19.1C23.8754 19.1 24.1544 19.1 24.3833 19.0386C25.0045 18.8722 25.4897 18.387 25.6561 17.7659C25.7174 17.537 25.7174 17.258 25.7174 16.7C25.7174 16.142 25.7174 15.863 25.6561 15.6341C25.4897 15.0129 25.0045 14.5278 24.3833 14.3613C24.1544 14.3 23.8754 14.3 23.3174 14.3C22.7595 14.3 22.4805 14.3 22.2516 14.3613C21.6304 14.5278 21.1452 15.0129 20.9788 15.6341Z" fill="#47A1FF"/>
<path d="M14.3174 23.3C14.3174 22.742 14.3174 22.463 14.3788 22.2341C14.5452 21.6129 15.0304 21.1278 15.6516 20.9613C15.8805 20.9 16.1595 20.9 16.7174 20.9C17.2754 20.9 17.5544 20.9 17.7833 20.9613C18.4045 21.1278 18.8897 21.6129 19.0561 22.2341C19.1174 22.463 19.1174 22.742 19.1174 23.3C19.1174 23.858 19.1174 24.137 19.0561 24.3659C18.8897 24.987 18.4045 25.4722 17.7833 25.6386C17.5544 25.7 17.2754 25.7 16.7174 25.7C16.1595 25.7 15.8805 25.7 15.6516 25.6386C15.0304 25.4722 14.5452 24.987 14.3788 24.3659C14.3174 24.137 14.3174 23.858 14.3174 23.3Z" fill="#47A1FF"/>
<path d="M20.9788 22.2341C20.9174 22.463 20.9174 22.742 20.9174 23.3C20.9174 23.858 20.9174 24.137 20.9788 24.3659C21.1452 24.987 21.6304 25.4722 22.2516 25.6386C22.4805 25.7 22.7595 25.7 23.3174 25.7C23.8754 25.7 24.1544 25.7 24.3833 25.6386C25.0045 25.4722 25.4897 24.987 25.6561 24.3659C25.7174 24.137 25.7174 23.858 25.7174 23.3C25.7174 22.742 25.7174 22.463 25.6561 22.2341C25.4897 21.6129 25.0045 21.1278 24.3833 20.9613C24.1544 20.9 23.8754 20.9 23.3174 20.9C22.7595 20.9 22.4805 20.9 22.2516 20.9613C21.6304 21.1278 21.1452 21.6129 20.9788 22.2341Z" fill="#47A1FF"/>
</g>
<defs>
<clipPath id="clip0_8087_37791">
<rect width="40" height="40" fill="white" transform="translate(0.0174561)"/>
</clipPath>
</defs>
</svg>
