<svg width="40" height="40" viewBox="0 0 40 40" fill="none" xmlns="http://www.w3.org/2000/svg">
<g clip-path="url(#clip0_8087_37791)">
<path d="M0 16.6C0 10.4324 0 7.34855 1.31368 5.04541C2.201 3.48979 3.48979 2.201 5.04541 1.31368C7.34855 0 10.4324 0 16.6 0H23.4C29.5676 0 32.6515 0 34.9546 1.31368C36.5102 2.201 37.799 3.48979 38.6863 5.04541C40 7.34855 40 10.4324 40 16.6V23.4C40 29.5676 40 32.6515 38.6863 34.9546C37.799 36.5102 36.5102 37.799 34.9546 38.6863C32.6515 40 29.5676 40 23.4 40H16.6C10.4324 40 7.34855 40 5.04541 38.6863C3.48979 37.799 2.201 36.5102 1.31368 34.9546C0 32.6515 0 29.5676 0 23.4V16.6Z" fill="#47A1FF" fill-opacity="0.1"/>
<path d="M0.5 16.6C0.5 13.5071 0.50047 11.2205 0.662209 9.41821C0.823342 7.62271 1.14145 6.35655 1.748 5.29314C2.59095 3.8153 3.8153 2.59095 5.29314 1.748C6.35655 1.14145 7.62271 0.823342 9.41821 0.662209C11.2205 0.50047 13.5071 0.5 16.6 0.5H23.4C26.4929 0.5 28.7795 0.50047 30.5818 0.662209C32.3773 0.823342 33.6435 1.14145 34.7069 1.748C36.1847 2.59095 37.4091 3.8153 38.252 5.29314C38.8586 6.35655 39.1767 7.62271 39.3378 9.41821C39.4995 11.2205 39.5 13.5071 39.5 16.6V23.4C39.5 26.4929 39.4995 28.7795 39.3378 30.5818C39.1767 32.3773 38.8586 33.6435 38.252 34.7069C37.4091 36.1847 36.1847 37.4091 34.7069 38.252C33.6435 38.8586 32.3773 39.1767 30.5818 39.3378C28.7795 39.4995 26.4929 39.5 23.4 39.5H16.6C13.5071 39.5 11.2205 39.4995 9.41821 39.3378C7.62271 39.1767 6.35655 38.8586 5.29314 38.252C3.8153 37.4091 2.59095 36.1847 1.748 34.7069C1.14145 33.6435 0.823342 32.3773 0.662209 30.5818C0.50047 28.7795 0.5 26.4929 0.5 23.4V16.6Z" stroke="#47A1FF" stroke-opacity="0.1"/>
<path d="M11.6 15.1935C11.6 13.2088 13.2089 11.6 15.1935 11.6H16.4C17.0627 11.6 17.6 11.0627 17.6 10.4C17.6 9.73721 17.0627 9.19995 16.4 9.19995H15.1935C11.8834 9.19995 9.19998 11.8834 9.19998 15.1935V16.4C9.19998 17.0627 9.73724 17.6 10.4 17.6C11.0627 17.6 11.6 17.0627 11.6 16.4V15.1935Z" fill="#47A1FF"/>
<path d="M23.6 9.19995C22.9372 9.19995 22.4 9.73721 22.4 10.4C22.4 11.0627 22.9372 11.6 23.6 11.6H24.8C26.7882 11.6 28.4 13.2117 28.4 15.2V16.4C28.4 17.0627 28.9372 17.6 29.6 17.6C30.2627 17.6 30.8 17.0627 30.8 16.4V15.2C30.8 11.8862 28.1137 9.19995 24.8 9.19995H23.6Z" fill="#47A1FF"/>
<path d="M11.6 23.6C11.6 22.9372 11.0627 22.4 10.4 22.4C9.73724 22.4 9.19998 22.9372 9.19998 23.6V24.8C9.19998 28.1137 11.8863 30.8 15.2 30.8H16.4C17.0627 30.8 17.6 30.2627 17.6 29.6C17.6 28.9372 17.0627 28.4 16.4 28.4H15.2C13.2118 28.4 11.6 26.7882 11.6 24.8V23.6Z" fill="#47A1FF"/>
<path d="M30.8 23.6C30.8 22.9372 30.2627 22.4 29.6 22.4C28.9372 22.4 28.4 22.9372 28.4 23.6L28.4 24.8037C28.3979 26.789 26.789 28.3979 24.8038 28.4L23.6 28.4C22.9372 28.4 22.4 28.9372 22.4 29.6C22.4 30.2627 22.9372 30.8 23.6 30.8L24.8063 30.7999C28.1151 30.7965 30.7965 28.115 30.8 24.8063L30.8 23.6Z" fill="#47A1FF"/>
<path d="M14.3613 15.6341C14.3 15.863 14.3 16.142 14.3 16.7C14.3 17.2579 14.3 17.5369 14.3613 17.7658C14.5278 18.387 15.0129 18.8722 15.6341 19.0386C15.863 19.1 16.142 19.1 16.7 19.1C17.258 19.1 17.537 19.1 17.7659 19.0386C18.387 18.8722 18.8722 18.387 19.0386 17.7658C19.1 17.5369 19.1 17.2579 19.1 16.7C19.1 16.142 19.1 15.863 19.0386 15.6341C18.8722 15.0129 18.387 14.5277 17.7659 14.3613C17.537 14.3 17.258 14.3 16.7 14.3C16.142 14.3 15.863 14.3 15.6341 14.3613C15.0129 14.5277 14.5278 15.0129 14.3613 15.6341Z" fill="#47A1FF"/>
<path d="M20.9613 15.6341C20.9 15.863 20.9 16.142 20.9 16.7C20.9 17.2579 20.9 17.5369 20.9613 17.7658C21.1278 18.387 21.6129 18.8722 22.2341 19.0386C22.463 19.1 22.742 19.1 23.3 19.1C23.858 19.1 24.137 19.1 24.3659 19.0386C24.987 18.8722 25.4722 18.387 25.6386 17.7658C25.7 17.5369 25.7 17.2579 25.7 16.7C25.7 16.142 25.7 15.863 25.6386 15.6341C25.4722 15.0129 24.987 14.5277 24.3659 14.3613C24.137 14.3 23.858 14.3 23.3 14.3C22.742 14.3 22.463 14.3 22.2341 14.3613C21.6129 14.5277 21.1278 15.0129 20.9613 15.6341Z" fill="#47A1FF"/>
<path d="M14.3 23.3C14.3 22.742 14.3 22.463 14.3613 22.2341C14.5278 21.6129 15.0129 21.1277 15.6341 20.9613C15.863 20.9 16.142 20.9 16.7 20.9C17.258 20.9 17.537 20.9 17.7659 20.9613C18.387 21.1277 18.8722 21.6129 19.0386 22.2341C19.1 22.463 19.1 22.742 19.1 23.3C19.1 23.8579 19.1 24.1369 19.0386 24.3658C18.8722 24.987 18.387 25.4722 17.7659 25.6386C17.537 25.7 17.258 25.7 16.7 25.7C16.142 25.7 15.863 25.7 15.6341 25.6386C15.0129 25.4722 14.5278 24.987 14.3613 24.3658C14.3 24.1369 14.3 23.8579 14.3 23.3Z" fill="#47A1FF"/>
<path d="M20.9613 22.2341C20.9 22.463 20.9 22.742 20.9 23.3C20.9 23.8579 20.9 24.1369 20.9613 24.3658C21.1278 24.987 21.6129 25.4722 22.2341 25.6386C22.463 25.7 22.742 25.7 23.3 25.7C23.858 25.7 24.137 25.7 24.3659 25.6386C24.987 25.4722 25.4722 24.987 25.6386 24.3658C25.7 24.1369 25.7 23.8579 25.7 23.3C25.7 22.742 25.7 22.463 25.6386 22.2341C25.4722 21.6129 24.987 21.1277 24.3659 20.9613C24.137 20.9 23.858 20.9 23.3 20.9C22.742 20.9 22.463 20.9 22.2341 20.9613C21.6129 21.1277 21.1278 21.6129 20.9613 22.2341Z" fill="#47A1FF"/>
</g>
<defs>
<clipPath id="clip0_8087_37791">
<rect width="40" height="40" fill="white"/>
</clipPath>
</defs>
</svg>
