<svg width="41" height="40" viewBox="0 0 41 40" fill="none" xmlns="http://www.w3.org/2000/svg">
<g clip-path="url(#clip0_6009_236516)">
<path d="M0.0174561 16.6C0.0174561 10.4324 0.0174561 7.34855 1.33114 5.04541C2.21845 3.48979 3.50725 2.201 5.06287 1.31368C7.366 0 10.4498 0 16.6175 0H23.4175C29.5851 0 32.6689 0 34.972 1.31368C36.5277 2.201 37.8165 3.48979 38.7038 5.04541C40.0175 7.34855 40.0175 10.4324 40.0175 16.6V23.4C40.0175 29.5676 40.0175 32.6515 38.7038 34.9546C37.8165 36.5102 36.5277 37.799 34.972 38.6863C32.6689 40 29.5851 40 23.4175 40H16.6175C10.4498 40 7.366 40 5.06287 38.6863C3.50725 37.799 2.21845 36.5102 1.33114 34.9546C0.0174561 32.6515 0.0174561 29.5676 0.0174561 23.4V16.6Z" fill="#47A1FF" fill-opacity="0.1"/>
<path d="M0.517456 16.6C0.517456 13.5071 0.517926 11.2205 0.679665 9.41821C0.840798 7.62271 1.1589 6.35655 1.76546 5.29314C2.6084 3.8153 3.83276 2.59095 5.3106 1.748C6.374 1.14145 7.64017 0.823342 9.43567 0.662209C11.2379 0.50047 13.5245 0.5 16.6175 0.5H23.4175C26.5104 0.5 28.797 0.50047 30.5992 0.662209C32.3947 0.823342 33.6609 1.14145 34.7243 1.748C36.2022 2.59095 37.4265 3.8153 38.2695 5.29314C38.876 6.35655 39.1941 7.62271 39.3552 9.41821C39.517 11.2205 39.5175 13.5071 39.5175 16.6V23.4C39.5175 26.4929 39.517 28.7795 39.3552 30.5818C39.1941 32.3773 38.876 33.6435 38.2695 34.7069C37.4265 36.1847 36.2022 37.4091 34.7243 38.252C33.6609 38.8586 32.3947 39.1767 30.5992 39.3378C28.797 39.4995 26.5104 39.5 23.4175 39.5H16.6175C13.5245 39.5 11.2379 39.4995 9.43567 39.3378C7.64017 39.1767 6.374 38.8586 5.3106 38.252C3.83276 37.4091 2.6084 36.1847 1.76546 34.7069C1.1589 33.6435 0.840798 32.3773 0.679665 30.5818C0.517926 28.7795 0.517456 26.4929 0.517456 23.4V16.6Z" stroke="#47A1FF" stroke-opacity="0.1"/>
<path fill-rule="evenodd" clip-rule="evenodd" d="M12.8065 15.6887C12.8193 15.9608 12.7399 16.2387 12.5617 16.4722C12.4783 16.5815 12.3797 16.6725 12.2712 16.7445C11.8504 17.7445 11.6174 18.8438 11.6174 20C11.6174 21.5157 12.0178 22.9343 12.7178 24.1596C14.1662 26.6953 16.8935 28.4 20.0174 28.4C23.1381 28.4 25.8629 26.6989 27.3125 24.1676C28.0153 22.9405 28.4174 21.519 28.4174 20C28.4174 18.852 28.1871 17.7578 27.7702 16.761C27.4324 16.5487 27.2078 16.1727 27.2078 15.7442C27.2078 15.7158 27.2088 15.6876 27.2107 15.6597C25.7394 13.2265 23.0684 11.6 20.0174 11.6C16.9562 11.6 14.2755 13.2373 12.8065 15.6887ZM10.3964 15.0887C12.1828 11.5956 15.8193 9.19998 20.0174 9.19998C25.9821 9.19998 30.8174 14.0353 30.8174 20C30.8174 21.9484 30.3004 23.7798 29.3951 25.3604C27.5354 28.6077 24.0332 30.8 20.0174 30.8C15.9974 30.8 12.492 28.603 10.6338 25.35C9.73224 23.7718 9.21744 21.9442 9.21744 20C9.21744 18.2339 9.64229 16.5635 10.3964 15.0887Z" fill="#47A1FF"/>
<path fill-rule="evenodd" clip-rule="evenodd" d="M15.2581 18.3546C13.4999 18.0027 11.992 17.4522 10.9358 16.7384L10.9072 16.7191L10.7368 16.5891C10.21 16.187 10.1088 15.434 10.5109 14.9071C10.9129 14.3803 11.666 14.2791 12.1928 14.6811L12.3065 14.7679C13.0144 15.2381 14.1269 15.6614 15.5243 15.959C15.7171 14.7846 15.993 13.7119 16.3386 12.7904C16.6938 11.8431 17.1458 10.993 17.7086 10.3583C18.2701 9.72497 19.0443 9.19998 20.0078 9.19998C20.9712 9.19998 21.7454 9.72497 22.307 10.3583C22.8697 10.993 23.3217 11.8431 23.6769 12.7904C24.0225 13.7119 24.2985 14.7846 24.4913 15.959C25.9064 15.6576 27.0294 15.2273 27.7358 14.7499L28.0403 14.5442H28.6249C29.2877 14.5442 29.8249 15.0814 29.8249 15.7442C29.8249 16.3579 29.3642 16.864 28.7697 16.9355C27.7375 17.554 26.3502 18.0358 24.7575 18.3546C24.7907 18.8921 24.8078 19.4418 24.8078 20C24.8078 20.7453 24.7773 21.4755 24.7187 22.1818C26.4582 22.5264 27.954 23.0646 29.0134 23.7615C29.567 24.1257 29.7206 24.8699 29.3563 25.4235C28.9921 25.9772 28.248 26.1308 27.6943 25.7665C26.9686 25.2891 25.828 24.8618 24.3983 24.5656C24.2136 25.5357 23.9703 26.4272 23.6769 27.2096C23.3217 28.1569 22.8697 29.0069 22.307 29.6417C21.7454 30.275 20.9712 30.8 20.0078 30.8C19.0443 30.8 18.2701 30.275 17.7086 29.6417C17.1458 29.0069 16.6938 28.1569 16.3386 27.2096C16.0452 26.4272 15.802 25.5357 15.6172 24.5656C14.195 24.8602 13.0587 25.2847 12.3321 25.7594C11.7773 26.1219 11.0337 25.966 10.6712 25.4112C10.3087 24.8563 10.4646 24.1127 11.0194 23.7502C12.0775 23.0589 13.5664 22.5246 15.2968 22.1818C15.2383 21.4755 15.2078 20.7453 15.2078 20C15.2078 19.4418 15.2249 18.8921 15.2581 18.3546ZM17.899 16.3085C18.0685 15.2895 18.3043 14.3837 18.5858 13.6331C18.882 12.8432 19.2058 12.2873 19.5044 11.9505C19.8043 11.6122 19.9771 11.6 20.0078 11.6C20.0384 11.6 20.2113 11.6122 20.5111 11.9505C20.8098 12.2873 21.1335 12.8432 21.4298 13.6331C21.7112 14.3837 21.947 15.2895 22.1165 16.3085C21.4472 16.3678 20.7417 16.4 20.0078 16.4C19.2738 16.4 18.5683 16.3678 17.899 16.3085ZM17.6776 21.8461C17.632 21.2531 17.6078 20.6357 17.6078 20C17.6078 19.5553 17.6196 19.1196 17.6424 18.6949C18.4093 18.7642 19.2019 18.8 20.0078 18.8C20.8136 18.8 21.6063 18.7642 22.3732 18.6949C22.3959 19.1196 22.4078 19.5553 22.4078 20C22.4078 20.6357 22.3835 21.2531 22.3379 21.8461C21.5822 21.7789 20.8015 21.7442 20.0078 21.7442C19.2139 21.7442 18.4333 21.7789 17.6776 21.8461ZM17.9963 24.2272C18.1544 25.0296 18.3547 25.7505 18.5858 26.3669C18.882 27.1568 19.2058 27.7126 19.5044 28.0495C19.8043 28.3877 19.9771 28.4 20.0078 28.4C20.0384 28.4 20.2113 28.3877 20.5111 28.0495C20.8098 27.7126 21.1335 27.1568 21.4298 26.3669C21.6609 25.7505 21.8612 25.0296 22.0193 24.2272C21.3789 24.1733 20.7061 24.1442 20.0078 24.1442C19.3095 24.1442 18.6367 24.1733 17.9963 24.2272Z" fill="#47A1FF"/>
</g>
<defs>
<clipPath id="clip0_6009_236516">
<rect width="40" height="40" fill="white" transform="translate(0.0174561)"/>
</clipPath>
</defs>
</svg>
