<svg width="41" height="40" viewBox="0 0 41 40" fill="none" xmlns="http://www.w3.org/2000/svg">
<g clip-path="url(#clip0_8777_291023)">
<path d="M0.0174561 16.6C0.0174561 10.4324 0.0174561 7.34855 1.33114 5.04541C2.21845 3.48979 3.50725 2.201 5.06287 1.31368C7.366 0 10.4498 0 16.6175 0H23.4175C29.5851 0 32.6689 0 34.972 1.31368C36.5277 2.201 37.8165 3.48979 38.7038 5.04541C40.0175 7.34855 40.0175 10.4324 40.0175 16.6V23.4C40.0175 29.5676 40.0175 32.6515 38.7038 34.9546C37.8165 36.5102 36.5277 37.799 34.972 38.6863C32.6689 40 29.5851 40 23.4175 40H16.6175C10.4498 40 7.366 40 5.06287 38.6863C3.50725 37.799 2.21845 36.5102 1.33114 34.9546C0.0174561 32.6515 0.0174561 29.5676 0.0174561 23.4V16.6Z" fill="#3396FF" fill-opacity="0.1"/>
<path d="M0.517456 16.6C0.517456 13.5071 0.517926 11.2205 0.679665 9.41821C0.840798 7.62271 1.1589 6.35655 1.76546 5.29314C2.6084 3.8153 3.83276 2.59095 5.3106 1.748C6.374 1.14145 7.64017 0.823342 9.43567 0.662209C11.2379 0.50047 13.5245 0.5 16.6175 0.5H23.4175C26.5104 0.5 28.797 0.50047 30.5992 0.662209C32.3947 0.823342 33.6609 1.14145 34.7243 1.748C36.2022 2.59095 37.4265 3.8153 38.2695 5.29314C38.876 6.35655 39.1941 7.62271 39.3552 9.41821C39.517 11.2205 39.5175 13.5071 39.5175 16.6V23.4C39.5175 26.4929 39.517 28.7795 39.3552 30.5818C39.1941 32.3773 38.876 33.6435 38.2695 34.7069C37.4265 36.1847 36.2022 37.4091 34.7243 38.252C33.6609 38.8586 32.3947 39.1767 30.5992 39.3378C28.797 39.4995 26.5104 39.5 23.4175 39.5H16.6175C13.5245 39.5 11.2379 39.4995 9.43567 39.3378C7.64017 39.1767 6.374 38.8586 5.3106 38.252C3.83276 37.4091 2.6084 36.1847 1.76546 34.7069C1.1589 33.6435 0.840798 32.3773 0.679665 30.5818C0.517926 28.7795 0.517456 26.4929 0.517456 23.4V16.6Z" stroke="#3396FF" stroke-opacity="0.1"/>
<path d="M18.2175 14.6C18.2175 16.5882 16.6057 18.2 14.6175 18.2C12.6292 18.2 11.0175 16.5882 11.0175 14.6C11.0175 12.6118 12.6292 11 14.6175 11C16.6057 11 18.2175 12.6118 18.2175 14.6Z" fill="#3396FF"/>
<path d="M29.0175 14.6C29.0175 16.5882 27.4057 18.2 25.4175 18.2C23.4292 18.2 21.8175 16.5882 21.8175 14.6C21.8175 12.6118 23.4292 11 25.4175 11C27.4057 11 29.0175 12.6118 29.0175 14.6Z" fill="#3396FF"/>
<path d="M18.2175 25.4C18.2175 27.3882 16.6057 29 14.6175 29C12.6292 29 11.0175 27.3882 11.0175 25.4C11.0175 23.4118 12.6292 21.8 14.6175 21.8C16.6057 21.8 18.2175 23.4118 18.2175 25.4Z" fill="#3396FF"/>
<path d="M29.0175 25.4C29.0175 27.3882 27.4057 29 25.4175 29C23.4292 29 21.8175 27.3882 21.8175 25.4C21.8175 23.4118 23.4292 21.8 25.4175 21.8C27.4057 21.8 29.0175 23.4118 29.0175 25.4Z" fill="#3396FF"/>
</g>
<defs>
<clipPath id="clip0_8777_291023">
<rect width="40" height="40" fill="white" transform="translate(0.0174561)"/>
</clipPath>
</defs>
</svg>
