<svg width="41" height="40" viewBox="0 0 41 40" fill="none" xmlns="http://www.w3.org/2000/svg">
<g clip-path="url(#clip0_8205_129586)">
<path d="M0.0174561 16.6C0.0174561 10.4324 0.0174561 7.34855 1.33114 5.04541C2.21845 3.48979 3.50725 2.201 5.06287 1.31368C7.366 0 10.4498 0 16.6175 0H23.4175C29.5851 0 32.6689 0 34.972 1.31368C36.5277 2.201 37.8165 3.48979 38.7038 5.04541C40.0175 7.34855 40.0175 10.4324 40.0175 16.6V23.4C40.0175 29.5676 40.0175 32.6515 38.7038 34.9546C37.8165 36.5102 36.5277 37.799 34.972 38.6863C32.6689 40 29.5851 40 23.4175 40H16.6175C10.4498 40 7.366 40 5.06287 38.6863C3.50725 37.799 2.21845 36.5102 1.33114 34.9546C0.0174561 32.6515 0.0174561 29.5676 0.0174561 23.4V16.6Z" fill="#3396FF" fill-opacity="0.1"/>
<path d="M0.517456 16.6C0.517456 13.5071 0.517926 11.2205 0.679665 9.41821C0.840798 7.62271 1.1589 6.35655 1.76546 5.29314C2.6084 3.8153 3.83276 2.59095 5.3106 1.748C6.374 1.14145 7.64017 0.823342 9.43567 0.662209C11.2379 0.50047 13.5245 0.5 16.6175 0.5H23.4175C26.5104 0.5 28.797 0.50047 30.5992 0.662209C32.3947 0.823342 33.6609 1.14145 34.7243 1.748C36.2022 2.59095 37.4265 3.8153 38.2695 5.29314C38.876 6.35655 39.1941 7.62271 39.3552 9.41821C39.517 11.2205 39.5175 13.5071 39.5175 16.6V23.4C39.5175 26.4929 39.517 28.7795 39.3552 30.5818C39.1941 32.3773 38.876 33.6435 38.2695 34.7069C37.4265 36.1847 36.2022 37.4091 34.7243 38.252C33.6609 38.8586 32.3947 39.1767 30.5992 39.3378C28.797 39.4995 26.5104 39.5 23.4175 39.5H16.6175C13.5245 39.5 11.2379 39.4995 9.43567 39.3378C7.64017 39.1767 6.374 38.8586 5.3106 38.252C3.83276 37.4091 2.6084 36.1847 1.76546 34.7069C1.1589 33.6435 0.840798 32.3773 0.679665 30.5818C0.517926 28.7795 0.517456 26.4929 0.517456 23.4V16.6Z" stroke="#3396FF" stroke-opacity="0.1"/>
<path fill-rule="evenodd" clip-rule="evenodd" d="M19.5236 10.9143C18.6979 10.9143 18.0286 11.5837 18.0286 12.4093C18.0286 13.0719 17.4916 13.6091 16.8289 13.6093C15.8396 13.6095 15.1683 13.6143 14.6523 13.6646C14.1526 13.7133 13.9033 13.797 13.7329 13.8942C13.3956 14.0866 13.1161 14.3661 12.9236 14.7035C12.7722 14.9691 12.6748 15.3787 12.6489 16.4795C12.6481 16.5114 12.6476 16.552 12.6472 16.5991C12.6977 16.5991 12.7445 16.5992 12.7862 16.5992C14.9373 16.5992 16.6812 18.343 16.6812 20.4941C16.6812 22.6452 14.9373 24.3891 12.7862 24.3891C12.7456 24.3891 12.6986 24.389 12.647 24.389C12.6475 24.4347 12.6481 24.4751 12.6489 24.5087C12.6748 25.6095 12.7722 26.0192 12.9236 26.2848C13.1161 26.6221 13.3956 26.9016 13.7329 27.0941C13.9985 27.2456 14.4082 27.3429 15.509 27.3688C15.5392 27.3695 15.5799 27.37 15.6286 27.3703L15.6286 27.2315C15.6286 25.0804 17.3725 23.3365 19.5236 23.3365C21.6747 23.3365 23.4185 25.0804 23.4185 27.2315L23.4185 27.3707C23.4631 27.3703 23.5034 27.3696 23.5382 27.3688C24.639 27.3429 25.0486 27.2456 25.3142 27.0941C25.6516 26.9016 25.9311 26.6221 26.1235 26.2848C26.2207 26.1144 26.3044 25.8651 26.3531 25.3654C26.4034 24.8494 26.4082 24.1781 26.4084 23.1888C26.4086 22.5261 26.9458 21.9891 27.6084 21.9891C28.434 21.9891 29.1034 21.3198 29.1034 20.4941C29.1034 19.6685 28.434 18.9992 27.6084 18.9992C26.9458 18.9992 26.4086 18.4621 26.4084 17.7995C26.4082 16.8102 26.4034 16.1388 26.3531 15.6229C26.3044 15.1232 26.2207 14.8738 26.1235 14.7035C25.9311 14.3661 25.6516 14.0866 25.3142 13.8942C25.1439 13.797 24.8945 13.7133 24.3948 13.6646C23.8789 13.6143 23.2075 13.6095 22.2182 13.6093C21.5556 13.6091 21.0185 13.0719 21.0185 12.4093C21.0185 11.5837 20.3492 10.9143 19.5236 10.9143ZM16.8438 29.7622L16.6735 29.7642C16.5699 29.7653 16.4284 29.7668 16.2772 29.768C15.9848 29.7704 15.6261 29.7723 15.4524 29.7682C14.3491 29.7422 13.3848 29.6584 12.5438 29.1788C11.8331 28.7734 11.2443 28.1846 10.8389 27.4739C10.3593 26.6329 10.2755 25.6686 10.2495 24.5653C10.2447 24.3618 10.2457 24.0056 10.2475 23.7172C10.2484 23.5694 10.2496 23.4332 10.2506 23.3341L10.2523 23.1726C10.26 22.5139 10.7974 21.9837 11.4562 21.9859L11.9802 21.9875C12.2666 21.9883 12.5984 21.9891 12.7862 21.9891C13.6119 21.9891 14.2812 21.3198 14.2812 20.4941C14.2812 19.6685 13.6119 18.9992 12.7862 18.9992C12.5765 18.9992 12.2414 18.9984 11.96 18.9976L11.4487 18.996L10.2523 17.8087L10.2507 17.6427C10.2498 17.5414 10.2487 17.4029 10.2478 17.2538C10.2461 16.9639 10.2452 16.6085 10.2495 16.423C10.2755 15.3196 10.3593 14.3553 10.8389 13.5144C11.2443 12.8037 11.8331 12.2149 12.5438 11.8095C13.1238 11.4787 13.7477 11.3414 14.4196 11.2759C14.8283 11.2361 15.2926 11.2201 15.8156 11.2137C16.3202 9.64748 17.7896 8.51434 19.5236 8.51434C21.2576 8.51434 22.727 9.64748 23.2316 11.2137C23.7545 11.2201 24.2188 11.2361 24.6276 11.2759C25.2995 11.3414 25.9234 11.4787 26.5033 11.8095C27.214 12.2149 27.8028 12.8037 28.2082 13.5144C28.539 14.0943 28.6763 14.7182 28.7418 15.3901C28.7816 15.7989 28.7976 16.2632 28.804 16.7861C30.3702 17.2907 31.5034 18.7601 31.5034 20.4941C31.5034 22.2281 30.3702 23.6975 28.804 24.2021C28.7976 24.7251 28.7816 25.1894 28.7418 25.5981C28.6763 26.27 28.539 26.8939 28.2082 27.4739C27.8028 28.1846 27.214 28.7734 26.5033 29.1788C25.6624 29.6584 24.6981 29.7422 23.5947 29.7682C23.3736 29.7734 23.0171 29.7715 22.7325 29.7689C22.5866 29.7675 22.4535 29.7658 22.3569 29.7645L22.242 29.7628L22.1998 29.7622C21.5447 29.7515 21.0185 29.2174 21.0185 28.5623L21.0185 27.2315C21.0185 26.4058 20.3492 25.7365 19.5236 25.7365C18.6979 25.7365 18.0286 26.4058 18.0286 27.2315L18.0286 28.5617C18.0286 29.2185 17.5005 29.7539 16.8438 29.7622ZM10.2523 17.8087C10.2592 18.4648 10.7926 18.9937 11.4487 18.996L10.2523 17.8087Z" fill="#3396FF"/>
</g>
<defs>
<clipPath id="clip0_8205_129586">
<rect width="40" height="40" fill="white" transform="translate(0.0174561)"/>
</clipPath>
</defs>
</svg>
