<svg width="18" height="18" viewBox="0 0 18 18" fill="none" xmlns="http://www.w3.org/2000/svg">
<rect width="18" height="18" rx="6" fill="#141414" fill-opacity="0.2"/>
<path fill-rule="evenodd" clip-rule="evenodd" d="M5.28062 5.28074C5.55957 5.0018 6.01183 5.0018 6.29077 5.28074L8.99998 7.98995L11.7092 5.28074C11.9881 5.0018 12.4404 5.0018 12.7193 5.28074C12.9983 5.55969 12.9983 6.01195 12.7193 6.2909L10.0101 9.00011L12.7193 11.7093C12.9983 11.9883 12.9983 12.4405 12.7193 12.7195C12.4404 12.9984 11.9881 12.9984 11.7092 12.7195L8.99998 10.0103L6.29077 12.7195C6.01183 12.9984 5.55957 12.9984 5.28062 12.7195C5.00167 12.4405 5.00167 11.9883 5.28062 11.7093L7.98983 9.00011L5.28062 6.2909C5.00167 6.01195 5.00167 5.55969 5.28062 5.28074Z" fill="#EAF1F1"/>
</svg>
