<svg width="16" height="14" fill="none" viewBox="0 0 16 14">
  <path
    fill="#fff"
    d="M9.677 1.5h-2.61c-1.261 0-2.107.001-2.757.06-.629.056-.926.157-1.122.268a2.5 2.5 0 0 0-.933.933c-.112.196-.212.493-.269 1.122-.058.65-.06 1.496-.06 2.757v.72c0 1.26.002 2.107.06 2.756.057.63.157.927.27 1.123a2.5 2.5 0 0 0 .932.933c.196.111.493.212 1.122.268.65.059 1.496.06 2.757.06h2.61a.75.75 0 1 1 0 1.5h-2.61c-2.467 0-3.7 0-4.622-.525a4 4 0 0 1-1.493-1.493C.427 11.06.427 9.827.427 7.36v-.72c0-2.467 0-3.7.525-4.622A4 4 0 0 1 2.445.525C3.366 0 4.6 0 7.067 0h2.61a.75.75 0 1 1 0 1.5Z"
  />
  <path
    fill="#fff"
    d="M10.896 11.03a.75.75 0 0 1 0-1.06l1.793-1.793a.25.25 0 0 0-.176-.427H8.177a.75.75 0 0 1 0-1.5h4.336a.25.25 0 0 0 .176-.427L10.896 4.03a.75.75 0 0 1 1.061-1.06l3.323 3.323a1 1 0 0 1 0 1.414l-3.323 3.323a.75.75 0 0 1-1.06 0Z"
  />
</svg>