<svg width="28" height="28" fill="none" viewBox="0 0 28 28">
  <mask
    id="p"
    width="26"
    height="28"
    x="1"
    y="0"
    maskUnits="userSpaceOnUse"
    style="mask-type:alpha"
  >
    <path
      fill="#D9D9D9"
      d="M12 1.172a4 4 0 0 1 4 0l8.124 4.69a4 4 0 0 1 2 3.465v9.381a4 4 0 0 1-2 3.464L16 26.862a4 4 0 0 1-4 0l-8.124-4.69a4 4 0 0 1-2-3.464V9.327a4 4 0 0 1 2-3.464L12 1.173Z"
    />
  </mask>
  <g mask="url(#p)">
    <path id="network-placeholder-fill" fill="#fff" d="M0 0h28v28H0z" />
    <path
      id="network-placeholder-dash"
      stroke="#000"
      stroke-dasharray="2 2"
      d="m8.953 2.931 2.032-1.173.25.433 1.015-.586c.269-.155.553-.271.844-.35l-.13-.483a4.003 4.003 0 0 1 2.071 0l-.13.483c.293.079.576.195.845.35l1.016.586.25-.433 2.03 1.173-.25.433 2.032 1.173.25-.433 2.03 1.172-.25.433 1.016.587c.269.155.512.342.725.556l.354-.354a4.003 4.003 0 0 1 1.035 1.794l-.483.129c.078.292.12.596.12.906v1.172h.5v2.346h-.5v2.345h.5v2.345h-.5v1.173c0 .31-.042.614-.12.906l.483.13a4.003 4.003 0 0 1-1.035 1.793l-.354-.354a3.498 3.498 0 0 1-.725.556l-1.015.586.25.434-2.031 1.172-.25-.433-2.031 1.173.25.433-2.031 1.172-.25-.433-1.016.587a3.494 3.494 0 0 1-.844.35l.13.482a4.003 4.003 0 0 1-2.071 0l.13-.483a3.496 3.496 0 0 1-.845-.35l-1.015-.586-.25.433-2.032-1.172.25-.433-2.03-1.173-.25.433L4.89 22.76l.25-.434-1.015-.586a3.498 3.498 0 0 1-.725-.556l-.354.354a4.003 4.003 0 0 1-1.035-1.794l.483-.13a3.497 3.497 0 0 1-.12-.905v-1.173h-.5V15.19h.5v-2.345h-.5v-2.346h.5V9.327c0-.31.042-.614.12-.906l-.483-.13a4.003 4.003 0 0 1 1.035-1.793l.354.354c.213-.214.456-.401.725-.556l1.015-.587-.25-.433 2.031-1.172.25.433 2.031-1.173-.25-.433Z"
    />
    <path
      fill="#798686"
      stroke="#fff"
      d="M14.243 13.563 14 13.428l-.243.135-6.388 3.549-.024.013c-.432.24-.79.44-1.053.622-.266.184-.516.405-.636.722a1.5 1.5 0 0 0 0 1.062c.12.317.37.538.636.722.263.183.62.382 1.053.622l.024.013 3.164 1.758.088.049c1.164.646 1.857 1.032 2.607 1.162.51.09 1.033.09 1.544 0 .75-.13 1.443-.516 2.606-1.162l.09-.05 3.163-1.757.024-.013c.432-.24.79-.44 1.053-.622.266-.184.516-.405.636-.722l-.468-.177.468.177a1.5 1.5 0 0 0 0-1.062l-.468.177.468-.177c-.12-.317-.37-.538-.636-.722-.263-.183-.62-.382-1.053-.622l-.024-.013-6.388-3.55Z"
    />
    <path
      fill="#9EA9A9"
      stroke="#fff"
      d="M14.243 8.563 14 8.428l-.243.135-6.388 3.549-.024.013c-.432.24-.79.44-1.053.622-.266.184-.516.405-.636.722a1.5 1.5 0 0 0 0 1.062c.12.316.37.537.636.722.263.183.62.382 1.053.622l.024.013 3.164 1.758.088.049c1.164.646 1.857 1.032 2.607 1.162.51.09 1.033.09 1.544 0 .75-.13 1.443-.516 2.606-1.162l.09-.05 3.163-1.757.024-.013c.432-.24.79-.44 1.053-.622.266-.184.516-.405.636-.722l-.468-.177.468.177a1.5 1.5 0 0 0 0-1.062l-.468.177.468-.177c-.12-.316-.37-.537-.636-.722-.263-.183-.62-.382-1.053-.622l-.024-.013-6.388-3.55Z"
    />
    <path
      fill="#C9CFCF"
      stroke="#fff"
      d="m22.344 9.53-.468-.176.468.177a1.5 1.5 0 0 0 0-1.062l-.468.177.468-.177c-.12-.317-.37-.537-.636-.722-.263-.183-.62-.382-1.053-.622l-.024-.013-3.163-1.758-.09-.05c-1.163-.645-1.856-1.03-2.606-1.161a4.5 4.5 0 0 0-1.544 0c-.75.13-1.443.516-2.607 1.162l-.088.05-3.164 1.757-.024.013c-.432.24-.79.44-1.053.622-.266.185-.516.405-.636.722a1.5 1.5 0 0 0 0 1.062c.12.317.37.537.636.722.263.183.62.382 1.053.622l.024.013 3.164 1.758.088.049c1.164.646 1.857 1.032 2.607 1.162.51.09 1.033.09 1.544 0 .75-.13 1.443-.516 2.606-1.162l.09-.05 3.163-1.757.024-.013c.432-.24.79-.44 1.053-.622.266-.184.516-.405.636-.722Z"
    />
  </g>
</svg>