<svg width="60" height="60" viewBox="0 0 60 60" fill="none">
  <rect id="token-placeholder-fill" width="58" height="58" x="1" y="1" fill="#fff" rx="29" />
  <path
    fill="#3B4040"
    stroke="#fff"
    stroke-width="2"
    d="M32 10a2 2 0 0 1 2-2h2a2 2 0 0 1 2 2v5.566c0 .357.192.685.495.875a16.001 16.001 0 0 1 4.256 3.894c.667.88.33 2.113-.627 2.665l-2.494 1.44c-.956.552-2.166.204-2.913-.609a9.12 9.12 0 1 0 .064 12.267c.739-.82 1.945-1.181 2.907-.64l2.509 1.415c.962.542 1.312 1.77.654 2.658a16 16 0 0 1-4.356 4.028c-.303.19-.495.518-.495.875V50a2 2 0 0 1-2 2h-2a2 2 0 0 1-2-2v-2.992c0-.602-.528-1.065-1.13-1.032-.579.032-1.16.032-1.74 0-.602-.032-1.13.43-1.13 1.032V50a2 2 0 0 1-2 2h-2a2 2 0 0 1-2-2v-5.566c0-.357-.192-.685-.495-.875a16 16 0 0 1 0-27.118c.303-.19.495-.517.495-.875V10a2 2 0 0 1 2-2h2a2 2 0 0 1 2 2v2.992c0 .601.528 1.064 1.13 1.032.58-.032 1.161-.032 1.74 0 .602.033 1.13-.43 1.13-1.032V10Z"
  />
  <rect
    id="token-placeholder-dash"
    width="58"
    height="58"
    x="1"
    y="1"
    stroke="#000"
    stroke-dasharray="6 6"
    stroke-width="2"
    rx="29"
  />
</svg>