<svg width="60" height="60" fill="none" viewBox="0 0 60 60">
  <g clip-path="url(#q)">
    <path
      id="wallet-placeholder-fill"
      fill="#fff"
      d="M0 24.9c0-9.251 0-13.877 1.97-17.332a15 15 0 0 1 5.598-5.597C11.023 0 15.648 0 24.9 0h10.2c9.252 0 13.877 0 17.332 1.97a15 15 0 0 1 5.597 5.598C60 11.023 60 15.648 60 24.9v10.2c0 9.252 0 13.877-1.97 17.332a15.001 15.001 0 0 1-5.598 5.597C48.977 60 44.352 60 35.1 60H24.9c-9.251 0-13.877 0-17.332-1.97a15 15 0 0 1-5.597-5.598C0 48.977 0 44.352 0 35.1V24.9Z"
    />
    <path
      id="wallet-placeholder-dash"
      stroke="#000"
      stroke-dasharray="4 4"
      stroke-width="1.5"
      d="M.04 41.708a231.598 231.598 0 0 1-.039-4.403l.75-.001L.75 35.1v-2.55H0v-5.1h.75V24.9l.001-2.204h-.75c.003-1.617.011-3.077.039-4.404l.75.016c.034-1.65.099-3.08.218-4.343l-.746-.07c.158-1.678.412-3.083.82-4.316l.713.236c.224-.679.497-1.296.827-1.875a14.25 14.25 0 0 1 1.05-1.585L3.076 5.9A15 15 0 0 1 5.9 3.076l.455.596a14.25 14.25 0 0 1 1.585-1.05c.579-.33 1.196-.603 1.875-.827l-.236-.712C10.812.674 12.217.42 13.895.262l.07.746C15.23.89 16.66.824 18.308.79l-.016-.75C19.62.012 21.08.004 22.695.001l.001.75L24.9.75h2.55V0h5.1v.75h2.55l2.204.001v-.75c1.617.003 3.077.011 4.404.039l-.016.75c1.65.034 3.08.099 4.343.218l.07-.746c1.678.158 3.083.412 4.316.82l-.236.713c.679.224 1.296.497 1.875.827a14.24 14.24 0 0 1 1.585 1.05l.455-.596A14.999 14.999 0 0 1 56.924 5.9l-.596.455c.384.502.735 1.032 1.05 1.585.33.579.602 1.196.827 1.875l.712-.236c.409 1.233.663 2.638.822 4.316l-.747.07c.119 1.264.184 2.694.218 4.343l.75-.016c.028 1.327.036 2.787.039 4.403l-.75.001.001 2.204v2.55H60v5.1h-.75v2.55l-.001 2.204h.75a231.431 231.431 0 0 1-.039 4.404l-.75-.016c-.034 1.65-.099 3.08-.218 4.343l.747.07c-.159 1.678-.413 3.083-.822 4.316l-.712-.236a10.255 10.255 0 0 1-.827 1.875 14.242 14.242 0 0 1-1.05 1.585l.596.455a14.997 14.997 0 0 1-2.824 2.824l-.455-.596c-.502.384-1.032.735-1.585 1.05-.579.33-1.196.602-1.875.827l.236.712c-1.233.409-2.638.663-4.316.822l-.07-.747c-1.264.119-2.694.184-4.343.218l.016.75c-1.327.028-2.787.036-4.403.039l-.001-.75-2.204.001h-2.55V60h-5.1v-.75H24.9l-2.204-.001v.75a231.431 231.431 0 0 1-4.404-.039l.016-.75c-1.65-.034-3.08-.099-4.343-.218l-.07.747c-1.678-.159-3.083-.413-4.316-.822l.236-.712a10.258 10.258 0 0 1-1.875-.827 14.252 14.252 0 0 1-1.585-1.05l-.455.596A14.999 14.999 0 0 1 3.076 54.1l.596-.455a14.24 14.24 0 0 1-1.05-1.585 10.259 10.259 0 0 1-.827-1.875l-.712.236C.674 49.188.42 47.783.262 46.105l.746-.07C.89 44.77.824 43.34.79 41.692l-.75.016Z"
    />
    <path
      fill="#fff"
      fill-rule="evenodd"
      d="M35.643 32.145c-.297-.743-.445-1.114-.401-1.275a.42.42 0 0 1 .182-.27c.134-.1.463-.1 1.123-.1.742 0 1.499.046 2.236-.05a6 6 0 0 0 5.166-5.166c.051-.39.051-.855.051-1.784 0-.928 0-1.393-.051-1.783a6 6 0 0 0-5.166-5.165c-.39-.052-.854-.052-1.783-.052h-7.72c-4.934 0-7.401 0-9.244 1.051a8 8 0 0 0-2.985 2.986C16.057 22.28 16.003 24.58 16 29 15.998 31.075 16 33.15 16 35.224A7.778 7.778 0 0 0 23.778 43H28.5c1.394 0 2.09 0 2.67-.116a6 6 0 0 0 4.715-4.714c.115-.58.115-1.301.115-2.744 0-1.31 0-1.964-.114-2.49a4.998 4.998 0 0 0-.243-.792Z"
      clip-rule="evenodd"
    />
    <path
      fill="#9EA9A9"
      fill-rule="evenodd"
      d="M37 18h-7.72c-2.494 0-4.266.002-5.647.126-1.361.122-2.197.354-2.854.728a6.5 6.5 0 0 0-2.425 2.426c-.375.657-.607 1.492-.729 2.853-.11 1.233-.123 2.777-.125 4.867 0 .7 0 1.05.097 1.181.096.13.182.181.343.2.163.02.518-.18 1.229-.581a6.195 6.195 0 0 1 3.053-.8H37c.977 0 1.32-.003 1.587-.038a4.5 4.5 0 0 0 3.874-3.874c.036-.268.039-.611.039-1.588 0-.976-.003-1.319-.038-1.587a4.5 4.5 0 0 0-3.875-3.874C38.32 18.004 37.977 18 37 18Zm-7.364 12.5h-7.414a4.722 4.722 0 0 0-4.722 4.723 6.278 6.278 0 0 0 6.278 6.278H28.5c1.466 0 1.98-.008 2.378-.087a4.5 4.5 0 0 0 3.535-3.536c.08-.397.087-.933.087-2.451 0-1.391-.009-1.843-.08-2.17a3.5 3.5 0 0 0-2.676-2.676c-.328-.072-.762-.08-2.108-.08Z"
      clip-rule="evenodd"
    />
  </g>
  <defs>
    <clipPath id="q"><path fill="#fff" d="M0 0h60v60H0z" /></clipPath>
  </defs>
</svg>