<?xml version="1.0" encoding="UTF-8" standalone="no"?>
<!DOCTYPE svg PUBLIC "-//W3C//DTD SVG 1.1//EN" "http://www.w3.org/Graphics/SVG/1.1/DTD/svg11.dtd">
<svg width="100%" height="100%" viewBox="0 0 60 60" version="1.1" xmlns="http://www.w3.org/2000/svg" xmlns:xlink="http://www.w3.org/1999/xlink" xml:space="preserve" xmlns:serif="http://www.serif.com/" style="fill-rule:evenodd;clip-rule:evenodd;">
    <path d="M60,30C60,13.443 46.557,0 30,0C13.443,0 0,13.443 0,30C0,46.557 13.443,60 30,60C46.557,60 60,46.557 60,30Z" style="fill:rgb(29,201,86);"/>
    <circle cx="30" cy="29.999" r="3" style="fill:white;"/>
    <path d="M45.316,17.9L44.436,17.475L45.316,17.899C45.325,17.881 45.333,17.864 45.342,17.846C45.435,17.654 45.552,17.414 45.602,17.159L44.783,16.997L45.602,17.159C45.698,16.677 45.612,16.177 45.363,15.754C45.231,15.53 45.043,15.342 44.891,15.192L44.807,15.108C44.657,14.957 44.469,14.768 44.245,14.636L43.737,15.498L44.245,14.636C43.822,14.387 43.322,14.301 42.84,14.397C42.585,14.447 42.345,14.564 42.153,14.657L42.1,14.683L27.05,21.929L26.942,21.981C25.811,22.526 25.099,22.868 24.486,23.355C24.067,23.687 23.688,24.066 23.356,24.485C22.869,25.098 22.526,25.81 21.981,26.942L21.93,27.05L14.683,42.1L14.658,42.153C14.564,42.345 14.448,42.584 14.398,42.839C14.302,43.321 14.387,43.822 14.637,44.245L15.492,43.74L14.636,44.245C14.769,44.469 14.957,44.656 15.109,44.807L15.151,44.849L15.192,44.891C15.342,45.042 15.53,45.231 15.755,45.363C16.178,45.612 16.678,45.698 17.16,45.602L16.965,44.621L17.16,45.601C17.415,45.551 17.654,45.435 17.846,45.341L17.9,45.316L17.481,44.446L17.9,45.316L32.95,38.069L33.057,38.018C34.189,37.473 34.901,37.13 35.514,36.644C35.933,36.312 36.312,35.933 36.644,35.514C37.131,34.9 37.474,34.189 38.018,33.057L38.07,32.949L45.316,17.899L45.316,17.9Z" style="fill:rgb(43,238,108);fill-rule:nonzero;stroke:white;stroke-width:2px;"/>
    <path d="M33.376,32.723L30.707,29.293L15.857,44.142L16.063,44.347C16.363,44.647 16.822,44.725 17.204,44.541L32.309,37.268C33.346,36.769 34.008,35.716 34.008,34.565C34.008,33.898 33.785,33.249 33.376,32.723Z" style="fill:rgb(29,201,86);fill-rule:nonzero;"/>
    <path d="M26.624,27.276L29.293,30.706L44.143,15.857L43.937,15.652C43.637,15.352 43.178,15.274 42.796,15.458L27.69,22.731C26.653,23.23 25.991,24.283 25.991,25.434C25.991,26.101 26.214,26.75 26.623,27.276L26.624,27.276Z" style="fill:rgb(134,249,153);fill-rule:nonzero;"/>
    <g transform="matrix(0.707107,0.707107,-0.707107,0.707107,30,-12.4264)">
        <circle cx="30" cy="30" r="3" style="fill:white;"/>
    </g>
    <path d="M59.5,30C59.5,13.719 46.281,0.5 30,0.5C13.719,0.5 0.5,13.719 0.5,30C0.5,46.281 13.719,59.5 30,59.5C46.281,59.5 59.5,46.281 59.5,30Z" style="fill:none;"/>
</svg>
