<?xml version="1.0" encoding="UTF-8" standalone="no"?>
<!DOCTYPE svg PUBLIC "-//W3C//DTD SVG 1.1//EN" "http://www.w3.org/Graphics/SVG/1.1/DTD/svg11.dtd">
<svg width="100%" height="100%" viewBox="0 0 60 60" version="1.1" xmlns="http://www.w3.org/2000/svg" xmlns:xlink="http://www.w3.org/1999/xlink" xml:space="preserve" xmlns:serif="http://www.serif.com/" style="fill-rule:evenodd;clip-rule:evenodd;stroke-linejoin:round;stroke-miterlimit:2;">
    <g>
        <path d="M60,30C60,13.443 46.557,0 30,0C13.443,0 0,13.443 0,30C0,46.557 13.443,60 30,60C46.557,60 60,46.557 60,30Z" style="fill:rgb(152,125,232);"/>
        <path d="M15.48,28.367L27.446,9.067C28.62,7.175 31.373,7.175 32.546,9.067L44.516,28.373C45.101,29.317 45.413,30.405 45.416,31.515L45.416,31.543C45.421,32.822 45.016,34.07 44.262,35.103L33.227,50.208C31.628,52.396 28.363,52.396 26.766,50.208L15.733,35.095C14.983,34.068 14.579,32.829 14.579,31.557L14.579,31.528C14.579,30.411 14.891,29.316 15.479,28.367L15.48,28.367Z" style="fill:white;"/>
        <path d="M30.84,10.112C30.658,9.822 30.338,9.647 29.996,9.648L29.996,24.5L42.594,30.03C42.675,29.564 42.593,29.067 42.324,28.632L30.84,10.112Z" style="fill:rgb(100,60,221);fill-rule:nonzero;"/>
        <path d="M29.996,9.648C29.653,9.646 29.333,9.822 29.151,10.113L17.662,28.643C17.408,29.057 17.314,29.551 17.398,30.03L29.996,24.5L29.996,9.648Z" style="fill:rgb(189,173,235);fill-rule:nonzero;"/>
        <path d="M29.996,50.544C30.315,50.545 30.616,50.392 30.804,50.134L42.039,34.754C42.346,34.32 41.846,33.766 41.381,34.034L31.49,39.71C31.035,39.971 30.52,40.108 29.996,40.108L29.996,50.545L29.996,50.544Z" style="fill:rgb(100,60,221);fill-rule:nonzero;"/>
        <path d="M17.966,34.762L29.19,50.134C29.39,50.408 29.693,50.544 29.997,50.544L29.997,40.108C29.473,40.108 28.958,39.971 28.504,39.71L18.62,34.034C18.152,33.764 17.649,34.326 17.967,34.762L17.966,34.762Z" style="fill:rgb(189,173,235);fill-rule:nonzero;"/>
        <path d="M42.594,30.03L29.996,24.5L29.996,37.638C30.521,37.638 31.036,37.5 31.491,37.239L41.64,31.409C42.165,31.099 42.496,30.586 42.594,30.029L42.594,30.03Z" style="fill:rgb(64,26,179);fill-rule:nonzero;"/>
        <path d="M29.996,37.638L29.996,24.462L17.398,30.028C17.496,30.592 17.835,31.111 18.372,31.42L28.502,37.24C28.964,37.505 29.48,37.638 29.996,37.638Z" style="fill:rgb(124,90,226);fill-rule:nonzero;"/>
    </g>
    <path d="M59.5,30C59.5,13.719 46.281,0.5 30,0.5C13.719,0.5 0.5,13.719 0.5,30C0.5,46.281 13.719,59.5 30,59.5C46.281,59.5 59.5,46.281 59.5,30Z" style="fill:none;"/>
</svg>
