<?xml version="1.0" encoding="UTF-8" standalone="no"?>
<!DOCTYPE svg PUBLIC "-//W3C//DTD SVG 1.1//EN" "http://www.w3.org/Graphics/SVG/1.1/DTD/svg11.dtd">
<svg width="100%" height="100%" viewBox="0 0 60 60" version="1.1" xmlns="http://www.w3.org/2000/svg" xmlns:xlink="http://www.w3.org/1999/xlink" xml:space="preserve" xmlns:serif="http://www.serif.com/" style="fill-rule:evenodd;clip-rule:evenodd;stroke-linejoin:round;stroke-miterlimit:2;">
    <path d="M60,3C60,1.344 58.656,0 57,0L3,0C1.344,0 0,1.344 0,3L0,57C0,58.656 1.344,60 3,60L57,60C58.656,60 60,58.656 60,57L60,3Z" style="fill:rgb(198,83,198);"/>
    <path d="M20.034,15.216C20,15.607 20,16.07 20,17L20,19.808C20,20.938 20,21.504 19.8,21.918C19.671,22.203 19.47,22.449 19.216,22.632C18.85,22.912 18.165,23.052 16.793,23.332C16.242,23.438 15.706,23.61 15.196,23.843C13.279,24.737 11.737,26.279 10.843,28.196C10,30.005 10,32.336 10,37C10,41.663 10,43.995 10.843,45.804C11.737,47.721 13.279,49.263 15.196,50.157C17.005,51 19.336,51 24,51L36,51C40.663,51 42.995,51 44.804,50.157C46.721,49.263 48.263,47.721 49.157,45.804C50,43.995 50,41.664 50,37C50,32.337 50,30.005 49.157,28.196C48.263,26.279 46.721,24.737 44.804,23.843C44.294,23.61 43.758,23.438 43.207,23.332C41.835,23.052 41.15,22.912 40.784,22.632C40.53,22.449 40.329,22.202 40.201,21.917C40,21.505 40,20.94 40,19.809L40,17C40,16.071 40,15.607 39.966,15.216C39.587,10.882 36.118,7.413 31.784,7.034C31.393,7 30.93,7 30,7C29.07,7 28.607,7 28.216,7.034C23.882,7.413 20.413,10.882 20.034,15.216Z" style="fill:white;fill-rule:nonzero;"/>
    <path d="M22,17C22,16.071 22,15.607 22.044,15.216C22.408,11.982 24.982,9.408 28.216,9.044C28.606,9 29.071,9 30,9C30.929,9 31.393,9 31.784,9.044C35.018,9.408 37.592,11.982 37.956,15.216C38,15.606 38,16.071 38,17L38,21.5C38,22.323 37.323,23 36.5,23C35.677,23 35,22.323 35,21.5L35,17C35,16.07 35,15.606 34.923,15.22C34.608,13.636 33.364,12.392 31.78,12.077C31.394,12 30.93,12 30,12C29.07,12 28.606,12 28.22,12.077C26.636,12.392 25.392,13.636 25.077,15.22C25,15.606 25,16.07 25,17L25,21.5C25,22.323 24.323,23 23.5,23C22.677,23 22,22.323 22,21.5L22,17Z" style="fill:rgb(232,125,232);fill-rule:nonzero;"/>
    <path d="M12,36.62C12,32.303 12,30.144 12.92,28.532C13.541,27.443 14.443,26.541 15.532,25.92C17.144,25 19.302,25 23.62,25L30.475,25C30.944,25 31.178,25 31.381,25.017C34.111,25.239 35.745,27.455 36,30C36.27,27.302 38.111,25 41.015,25C44.847,25 48,28.153 48,31.985L48,37.38C48,41.697 48,43.856 47.08,45.468C46.459,46.557 45.557,47.459 44.468,48.08C42.856,49 40.698,49 36.38,49L30.525,49C30.056,49 29.822,49 29.619,48.983C26.889,48.761 25.255,46.545 25,44C24.742,46.583 23.057,48.818 20.286,48.99C20.131,49 19.951,49 19.592,49C19.042,49 18.767,49 18.535,48.985C15.051,48.753 12.247,45.949 12.015,42.465C12,42.233 12,41.958 12,41.408L12,36.62ZM33.24,36.347C33.735,35.664 34.001,34.843 34.001,34C34.001,31.806 32.195,30 30.001,30C27.807,30 26.001,31.806 26.001,34C26.001,34.843 26.267,35.664 26.762,36.347C27.747,37.707 28.241,38.386 28.326,38.576C28.504,38.974 28.502,39.394 28.5,39.823L28.5,42.5C28.5,43.323 29.177,44 30,44C30.823,44 31.5,43.323 31.5,42.5L31.5,39.823C31.498,39.394 31.496,38.973 31.674,38.576C31.759,38.386 32.253,37.706 33.239,36.347L33.24,36.347Z" style="fill:rgb(232,125,232);"/>
    <path d="M59.5,3C59.5,1.62 58.38,0.5 57,0.5L3,0.5C1.62,0.5 0.5,1.62 0.5,3L0.5,57C0.5,58.38 1.62,59.5 3,59.5L57,59.5C58.38,59.5 59.5,58.38 59.5,57L59.5,3Z" style="fill:none;"/>
</svg>
