<?xml version="1.0" encoding="UTF-8" standalone="no"?>
<!DOCTYPE svg PUBLIC "-//W3C//DTD SVG 1.1//EN" "http://www.w3.org/Graphics/SVG/1.1/DTD/svg11.dtd">
<svg width="100%" height="100%" viewBox="0 0 60 60" version="1.1" xmlns="http://www.w3.org/2000/svg" xmlns:xlink="http://www.w3.org/1999/xlink" xml:space="preserve" xmlns:serif="http://www.serif.com/" style="fill-rule:evenodd;clip-rule:evenodd;">
    <g>
        <clipPath id="_clip1">
            <rect x="0" y="0" width="60" height="60"/>
        </clipPath>
        <g clip-path="url(#_clip1)">
            <path d="M0,25.01C0,15.76 0,11.133 1.97,7.678C3.301,5.345 5.235,3.412 7.568,2.081C11.023,0.11 15.648,0.11 24.9,0.11L35.1,0.11C44.351,0.11 48.977,0.11 52.432,2.08C54.765,3.411 56.698,5.344 58.029,7.677C60,11.133 60,15.758 60,25.01L60,35.21C60,44.462 60,49.087 58.03,52.542C56.699,54.875 54.765,56.809 52.432,58.14C48.977,60.11 44.352,60.11 35.1,60.11L24.9,60.11C15.649,60.11 11.023,60.11 7.568,58.14C5.235,56.809 3.302,54.875 1.971,52.542C0,49.087 0,44.462 0,35.21L0,25.01Z" style="fill:rgb(29,201,86);fill-rule:nonzero;"/>
            <path d="M0.5,25.01C0.5,20.375 0.5,16.932 0.744,14.215C0.988,11.505 1.47,9.565 2.404,7.926C3.691,5.671 5.56,3.802 7.816,2.516C9.455,1.58 11.395,1.098 14.105,0.855C16.822,0.61 20.265,0.61 24.9,0.61L35.1,0.61C39.735,0.61 43.178,0.61 45.895,0.855C48.605,1.098 50.545,1.58 52.185,2.515C54.44,3.802 56.309,5.671 57.595,7.926C58.53,9.566 59.012,11.505 59.255,14.216C59.499,16.933 59.5,20.376 59.5,25.01L59.5,35.21C59.5,39.845 59.5,43.288 59.256,46.005C59.012,48.715 58.53,50.655 57.596,52.295C56.309,54.55 54.44,56.419 52.184,57.705C50.545,58.641 48.605,59.123 45.895,59.366C43.178,59.61 39.735,59.61 35.1,59.61L24.9,59.61C20.265,59.61 16.822,59.61 14.105,59.366C11.395,59.123 9.455,58.641 7.815,57.706C5.56,56.419 3.691,54.55 2.405,52.294C1.47,50.655 0.988,48.716 0.745,46.005C0.5,43.288 0.5,39.845 0.5,35.21L0.5,25.01Z" style="fill:none;fill-rule:nonzero;stroke:white;stroke-opacity:0.1;stroke-width:1px;"/>
            <path d="M16.109,60C12.276,59.821 9.699,59.355 7.568,58.14C5.235,56.809 3.301,54.875 1.97,52.542C0.553,50.057 0.155,46.967 0.043,41.985L4.189,40.603C5.333,40.221 6.245,39.342 6.669,38.213L11.323,25.804C11.698,24.803 12.814,24.271 13.828,24.609L16.354,25.451C17.294,25.765 18.333,25.335 18.776,24.448L21.744,18.51C22.554,16.89 24.929,17.095 25.449,18.83L29.223,31.411C29.476,32.255 30.258,32.837 31.139,32.837C31.534,32.837 31.92,32.72 32.248,32.501L35.59,30.273C35.86,30.093 36.08,29.851 36.236,29.567L41.533,19.855C41.827,19.315 42.354,18.94 42.961,18.839L47.095,18.15C47.669,18.054 48.258,18.214 48.705,18.587L52.597,21.83C53.387,22.488 54.563,22.435 55.291,21.708L59.924,17.076C60,19.28 60,21.88 60,25.01L60,35.21C60,44.462 60,49.087 58.03,52.542C56.699,54.876 54.766,56.809 52.432,58.14C50.301,59.355 47.724,59.821 43.892,60L16.108,60L16.109,60Z" style="fill:rgb(43,238,108);fill-rule:nonzero;"/>
            <path d="M0.072,43.03C0.05,42.332 0.034,41.635 0.024,40.937L3.874,39.654C4.732,39.368 5.416,38.708 5.734,37.861L10.387,25.453C10.95,23.951 12.623,23.153 14.145,23.66L16.671,24.502C17.141,24.658 17.659,24.444 17.881,24.001L20.851,18.063C22.065,15.633 25.626,15.94 26.407,18.543L30.181,31.123C30.307,31.545 30.698,31.836 31.139,31.836C31.337,31.836 31.53,31.778 31.694,31.668L35.035,29.441C35.17,29.351 35.28,29.23 35.358,29.088L40.656,19.376C41.097,18.567 41.887,18.005 42.796,17.853L46.931,17.163C47.792,17.02 48.674,17.259 49.345,17.818L53.237,21.062C53.632,21.391 54.22,21.365 54.584,21.001L59.864,15.721C59.91,16.566 59.941,17.473 59.961,18.453L55.999,22.415C54.907,23.506 53.143,23.586 51.957,22.598L48.064,19.355C47.841,19.169 47.547,19.089 47.26,19.137L43.125,19.826C42.822,19.876 42.558,20.063 42.411,20.333L37.114,30.045C36.881,30.472 36.549,30.835 36.144,31.105L32.804,33.333C32.311,33.662 31.732,33.837 31.14,33.837C29.818,33.837 28.645,32.964 28.266,31.698L24.491,19.118C24.231,18.25 23.044,18.148 22.639,18.958L19.67,24.895C19.006,26.225 17.448,26.87 16.038,26.4L13.512,25.558C13.005,25.389 12.448,25.655 12.26,26.155L7.606,38.564C7.077,39.976 5.936,41.075 4.506,41.552L0.072,43.029L0.072,43.03Z" style="fill:white;fill-rule:nonzero;"/>
            <path d="M49.5,19C49.5,22.017 47.017,24.5 44,24.5C40.983,24.5 38.5,22.017 38.5,19C38.5,15.983 40.983,13.5 44,13.5C47.017,13.5 49.5,15.983 49.5,19Z" style="fill:rgb(43,238,108);"/>
            <path d="M47.5,19C47.5,20.92 45.92,22.5 44,22.5C42.08,22.5 40.5,20.92 40.5,19C40.5,17.08 42.08,15.5 44,15.5C45.92,15.5 47.5,17.08 47.5,19Z" style="fill:white;fill-rule:nonzero;"/>
            <path d="M45,0.283L45,59.937C44.37,59.979 43.706,60.011 43,60.035L43,0.185C43.706,0.21 44.37,0.241 45,0.283Z" style="fill:white;fill-rule:nonzero;"/>
            <path d="M0.5,25.01C0.5,20.375 0.5,16.932 0.744,14.215C0.988,11.505 1.47,9.565 2.404,7.926C3.691,5.671 5.56,3.802 7.816,2.516C9.455,1.58 11.395,1.098 14.105,0.855C16.822,0.61 20.265,0.61 24.9,0.61L35.1,0.61C39.735,0.61 43.178,0.61 45.895,0.855C48.605,1.098 50.545,1.58 52.185,2.515C54.44,3.802 56.309,5.671 57.595,7.926C58.53,9.566 59.012,11.505 59.255,14.216C59.499,16.933 59.5,20.376 59.5,25.01L59.5,35.21C59.5,39.845 59.5,43.288 59.256,46.005C59.012,48.715 58.53,50.655 57.596,52.295C56.309,54.55 54.44,56.419 52.184,57.705C50.545,58.641 48.605,59.123 45.895,59.366C43.178,59.61 39.735,59.61 35.1,59.61L24.9,59.61C20.265,59.61 16.822,59.61 14.105,59.366C11.395,59.123 9.455,58.641 7.815,57.706C5.56,56.419 3.691,54.55 2.405,52.294C1.47,50.655 0.988,48.716 0.745,46.005C0.5,43.288 0.5,39.845 0.5,35.21L0.5,25.01Z" style="fill:none;fill-rule:nonzero;"/>
        </g>
    </g>
</svg>
