<?xml version="1.0" encoding="UTF-8" standalone="no"?>
<!DOCTYPE svg PUBLIC "-//W3C//DTD SVG 1.1//EN" "http://www.w3.org/Graphics/SVG/1.1/DTD/svg11.dtd">
<svg width="100%" height="100%" viewBox="0 0 60 60" fill="none" xmlns="http://www.w3.org/2000/svg">
<rect width="60" height="60" rx="30" fill="#1DC956"/>
<circle cx="30" cy="29.9995" r="3" fill="white"/>
<path d="M45.3164 17.8989L44.4357 17.4748L45.3164 17.8989C45.3247 17.8815 45.3334 17.8637 45.3422 17.8455C45.4354 17.6534 45.5514 17.4142 45.6021 17.1591L44.7831 16.9964L45.6021 17.1591C45.6978 16.6772 45.6128 16.177 45.3633 15.7537C45.2312 15.5297 45.0426 15.3422 44.8912 15.1917C44.8768 15.1774 44.8628 15.1635 44.8492 15.1499C44.8356 15.1362 44.8216 15.1222 44.8074 15.1079C44.6568 14.9565 44.4694 14.7679 44.2453 14.6358L43.7374 15.4972L44.2453 14.6358C43.8221 14.3863 43.3219 14.3013 42.84 14.397C42.5849 14.4476 42.3456 14.5637 42.1535 14.6569C42.1353 14.6657 42.1175 14.6743 42.1002 14.6827L27.0502 21.929C27.0139 21.9464 26.978 21.9637 26.9426 21.9808C25.8106 22.5256 25.0988 22.8682 24.4861 23.3545C24.0672 23.687 23.6879 24.0664 23.3554 24.4852C22.8691 25.0979 22.5265 25.8097 21.9816 26.9417C21.9646 26.9772 21.9473 27.013 21.9298 27.0493L14.6835 42.0993C14.6752 42.1167 14.6665 42.1344 14.6577 42.1527C14.5645 42.3447 14.4485 42.584 14.3978 42.8391C14.3021 43.321 14.3871 43.8212 14.6366 44.2445L15.4919 43.7402L14.6366 44.2445C14.7687 44.4685 14.9573 44.656 15.1087 44.8065C15.1231 44.8208 15.1371 44.8347 15.1507 44.8483C15.1643 44.862 15.1783 44.876 15.1925 44.8903C15.3431 45.0417 15.5306 45.2303 15.7546 45.3624C16.1778 45.6119 16.6781 45.6969 17.1599 45.6012L16.9652 44.6204L17.1599 45.6012C17.415 45.5506 17.6543 45.4345 17.8464 45.3413C17.8646 45.3325 17.8824 45.3239 17.8997 45.3155L17.4812 44.4462L17.8997 45.3155L32.9497 38.0692C32.986 38.0518 33.0219 38.0345 33.0573 38.0174C34.1893 37.4726 34.9011 37.13 35.5138 36.6437C35.9327 36.3112 36.312 35.9318 36.6445 35.513C37.1308 34.9003 37.4734 34.1885 38.0183 33.0565C38.0353 33.0211 38.0526 32.9852 38.0701 32.9489L45.3164 17.8989Z" fill="#2BEE6C" stroke="white" stroke-width="2"/>
<path d="M33.3756 32.723L30.707 29.292L15.8578 44.1412L16.0632 44.3467C16.3637 44.6471 16.8213 44.7249 17.2041 44.5406L32.309 37.2678C34.0312 36.4386 34.5491 34.2318 33.3756 32.723Z" fill="#1DC956"/>
<path d="M26.6242 27.2754L29.2928 30.7065L44.1421 15.8572L43.9366 15.6518C43.6362 15.3513 43.1786 15.2736 42.7957 15.4579L27.6909 22.7306C25.9686 23.5598 25.4507 25.7667 26.6242 27.2754Z" fill="#86F999"/>
<circle cx="30" cy="29.9995" r="3" transform="rotate(45 30 29.9995)" fill="white"/>
<rect x="0.5" y="0.5" width="59" height="59" rx="29.5" stroke="#141414" stroke-opacity="0.1"/>
</svg>