<?xml version="1.0" encoding="UTF-8" standalone="no"?>
<!DOCTYPE svg PUBLIC "-//W3C//DTD SVG 1.1//EN" "http://www.w3.org/Graphics/SVG/1.1/DTD/svg11.dtd">
<svg width="100%" height="100%" viewBox="0 0 60 60" version="1.1" xmlns="http://www.w3.org/2000/svg" xmlns:xlink="http://www.w3.org/1999/xlink" xml:space="preserve" xmlns:serif="http://www.serif.com/" style="fill-rule:evenodd;clip-rule:evenodd;">
    <g>
        <path d="M0,24.9C0,15.648 0,11.022 1.97,7.568C3.301,5.234 5.235,3.301 7.569,1.97C11.023,0 15.648,0 24.9,0L35.1,0C44.351,0 48.977,0 52.432,1.97C54.765,3.301 56.698,5.235 58.029,7.568C60,11.022 60,15.648 60,24.899L60,35.099C60,44.351 60,48.977 58.03,52.431C56.699,54.764 54.765,56.698 52.432,58.029C48.977,59.999 44.352,59.999 35.1,59.999L24.9,59.999C15.649,59.999 11.023,59.999 7.568,58.029C5.235,56.698 3.302,54.764 1.971,52.431C0,48.977 0,44.351 0,35.1L0,24.9Z" style="fill:rgb(235,139,71);fill-rule:nonzero;"/>
        <path d="M0.5,24.9C0.5,20.265 0.5,16.822 0.744,14.105C0.988,11.395 1.47,9.455 2.404,7.815C3.691,5.56 5.56,3.691 7.816,2.405C9.455,1.468 11.395,0.986 14.105,0.743C16.822,0.5 20.265,0.5 24.9,0.5L35.1,0.5C39.735,0.5 43.178,0.5 45.895,0.744C48.605,0.987 50.545,1.469 52.185,2.404C54.44,3.691 56.309,5.56 57.595,7.815C58.53,9.455 59.012,11.395 59.255,14.105C59.499,16.822 59.5,20.265 59.5,24.899L59.5,35.099C59.5,39.734 59.5,43.177 59.256,45.895C59.012,48.605 58.53,50.545 57.596,52.184C56.309,54.439 54.44,56.308 52.184,57.594C50.545,58.53 48.605,59.012 45.895,59.255C43.178,59.499 39.735,59.499 35.1,59.499L24.9,59.499C20.265,59.499 16.822,59.499 14.105,59.255C11.395,59.012 9.455,58.53 7.815,57.595C5.56,56.308 3.691,54.439 2.405,52.184C1.47,50.544 0.988,48.604 0.745,45.894C0.5,43.178 0.5,39.734 0.5,35.1L0.5,24.9Z" style="fill:none;fill-rule:nonzero;"/>
        <path d="M19,52C24.523,52 29,47.523 29,42C29,36.477 24.523,32 19,32C13.477,32 9,36.477 9,42C9,47.523 13.477,52 19,52Z" style="fill:rgb(255,151,76);fill-rule:nonzero;stroke:white;stroke-width:2px;"/>
        <path d="M42.844,8.326C42.661,8.038 42.342,7.863 42.001,7.863C41.659,7.863 41.34,8.038 41.157,8.326L28.978,27.463C28.876,27.623 28.822,27.81 28.822,28C28.822,28.549 29.273,29 29.822,29C29.822,29 29.822,29 29.822,29L54.179,29C54.727,29 55.178,28.548 55.178,28C55.178,27.81 55.124,27.623 55.022,27.463L42.844,8.326Z" style="fill:white;"/>
        <path d="M42.335,11.646C42.659,11.761 42.906,12.15 43.401,12.926L50.733,24.449C51.295,25.332 51.576,25.774 51.525,26.139C51.491,26.381 51.369,26.603 51.183,26.762C50.903,27 50.38,27 49.333,27L34.667,27C33.62,27 33.097,27 32.817,26.762C32.631,26.603 32.509,26.381 32.475,26.139C32.424,25.774 32.705,25.333 33.267,24.449L40.599,12.926C41.094,12.15 41.341,11.761 41.665,11.646C41.882,11.569 42.118,11.569 42.335,11.646ZM35,27C38.84,27 42,23.84 42,20C42,23.84 45.16,27 49,27L35,27Z" style="fill:rgb(255,151,76);"/>
        <path d="M10.106,9.357C9.997,9.677 9.999,10.039 10,10.332L10,25.668C9.999,25.961 9.997,26.322 10.106,26.643C10.306,27.231 10.769,27.693 11.357,27.893C11.677,28.003 12.039,28.001 12.332,28L19,28C24.523,28 29,23.523 29,18C29,12.477 24.523,8 19,8L12.332,8C12.039,7.999 11.678,7.997 11.357,8.106C10.769,8.306 10.307,8.769 10.107,9.357L10.106,9.357Z" style="fill:rgb(255,151,76);fill-rule:nonzero;stroke:white;stroke-width:2px;"/>
        <circle cx="19" cy="18" r="4" style="fill:rgb(235,139,71);stroke:white;stroke-width:2px;"/>
        <circle cx="19" cy="41.999" r="4" style="fill:rgb(235,139,71);stroke:white;stroke-width:2px;"/>
    </g>
</svg>
