<?xml version="1.0" encoding="UTF-8" standalone="no"?>
<!DOCTYPE svg PUBLIC "-//W3C//DTD SVG 1.1//EN" "http://www.w3.org/Graphics/SVG/1.1/DTD/svg11.dtd">
<svg width="100%" height="100%" viewBox="0 0 60 60" fill="none" xmlns="http://www.w3.org/2000/svg">
<g clip-path="url(#clip0_1997_47550)">
<rect width="60" height="60" rx="30" fill="#C653C6"/>
<path d="M57.9809 0.0107422L57.9809 19.5106C56.8358 19.8923 55.7783 20.6673 55.3545 21.7975L50.7012 34.2062C50.3235 35.2134 49.2167 35.7415 48.1961 35.4013L45.6701 34.5593C44.7259 34.2445 43.6939 34.672 43.2488 35.5622L40.2799 41.5C39.4699 43.12 37.0958 42.9151 36.5754 41.1803L32.801 28.5992C32.4148 27.3119 30.8942 26.7643 29.776 27.5098L26.4348 29.7372C26.1653 29.9169 25.9435 30.1593 25.7884 30.4436L20.4909 40.1558C20.1965 40.6955 19.6702 41.0698 19.0639 41.1708L14.9291 41.86C14.3548 41.9557 13.7673 41.7964 13.32 41.4236L9.4276 38.18C8.63295 37.5178 7.46446 37.5708 6.73302 38.3022L2.10078 42.9345L0.0245056 42.9999V0.0107422H57.9809Z" fill="#E87DE8"/>
<path d="M61.9521 16.9419C61.974 17.6028 61.9893 18.299 62 19.0341L58.151 20.3171C57.2922 20.6034 56.6086 21.2621 56.2907 22.1098L51.6375 34.5184C51.0709 36.0293 49.4107 36.8214 47.8798 36.3111L45.3538 35.4691C44.8817 35.3117 44.3657 35.5254 44.1431 35.9706L41.1742 41.9084C39.9593 44.3383 36.3981 44.0309 35.6175 41.4288L31.8432 28.8476C31.6501 28.204 30.8898 27.9302 30.3306 28.3029L26.9894 30.5304C26.8547 30.6202 26.7438 30.7414 26.6662 30.8836L21.3687 40.5957C20.9271 41.4053 20.1378 41.9668 19.2282 42.1184L15.0935 42.8075C14.232 42.9511 13.3507 42.7121 12.6797 42.153L8.78736 38.9093C8.39004 38.5782 7.80579 38.6047 7.44007 38.9705L2.16052 44.25C2.11413 43.4055 2.08356 42.4982 2.06342 41.5187L6.02586 37.5562C7.12301 36.4591 8.87575 36.3796 10.0677 37.3729L13.9601 40.6165C14.1837 40.8029 14.4775 40.8826 14.7647 40.8347L18.8994 40.1456C19.2026 40.0951 19.4657 39.9079 19.6129 39.638L24.9104 29.9259C25.1431 29.4994 25.4758 29.1358 25.88 28.8663L29.2212 26.6388C30.8986 25.5206 33.1795 26.342 33.7588 28.2729L37.5331 40.8541C37.7934 41.7215 38.9804 41.8239 39.3854 41.0139L42.3543 35.0761C43.022 33.7408 44.5699 33.0996 45.9863 33.5717L48.5123 34.4137C49.0226 34.5838 49.576 34.3198 49.7648 33.8162L54.4181 21.4075C54.9478 19.9948 56.0872 18.8969 57.5186 18.4197L61.9521 16.9419Z" fill="white"/>
<path fill-rule="evenodd" clip-rule="evenodd" d="M35.5 26.9995C35.5 30.0371 33.0376 32.4995 30 32.4995C26.9624 32.4995 24.5 30.0371 24.5 26.9995C24.5 23.9619 26.9624 21.4995 30 21.4995C33.0376 21.4995 35.5 23.9619 35.5 26.9995Z" fill="white"/>
<path d="M31 -0.000488281V60H29V-0.000196189L31 -0.000488281Z" fill="white"/>
<path d="M33.5 26.9995C33.5 28.9325 31.933 30.4995 30 30.4995C28.067 30.4995 26.5 28.9325 26.5 26.9995C26.5 25.0665 28.067 23.4995 30 23.4995C31.933 23.4995 33.5 25.0665 33.5 26.9995Z" fill="#E87DE8"/>
</g>
<rect x="0.5" y="0.5" width="59" height="59" rx="29.5" stroke="#141414" stroke-opacity="0.1"/>
<defs>
<clipPath id="clip0_1997_47550">
<rect width="60" height="60" rx="30" fill="white"/>
</clipPath>
</defs>
</svg>
