<?xml version="1.0" encoding="UTF-8" standalone="no"?>
<!DOCTYPE svg PUBLIC "-//W3C//DTD SVG 1.1//EN" "http://www.w3.org/Graphics/SVG/1.1/DTD/svg11.dtd">
<svg width="100%" height="100%" viewBox="0 0 60 60" version="1.1" xmlns="http://www.w3.org/2000/svg" xmlns:xlink="http://www.w3.org/1999/xlink" xml:space="preserve" xmlns:serif="http://www.serif.com/" style="fill-rule:evenodd;clip-rule:evenodd;">
    <g>
        <path d="M0,24.9C0,15.648 0,11.022 1.97,7.568C3.301,5.234 5.235,3.301 7.569,1.97C11.023,0 15.648,0 24.9,0L35.1,0C44.351,0 48.977,0 52.432,1.97C54.765,3.301 56.698,5.235 58.029,7.568C60,11.022 60,15.648 60,24.899L60,35.099C60,44.351 60,48.977 58.03,52.431C56.699,54.764 54.765,56.698 52.432,58.029C48.977,59.999 44.352,59.999 35.1,59.999L24.9,59.999C15.649,59.999 11.023,59.999 7.568,58.029C5.235,56.698 3.302,54.764 1.971,52.431C0,48.977 0,44.351 0,35.1L0,24.9Z" style="fill:rgb(235,139,71);fill-rule:nonzero;"/>
        <path d="M0.5,24.9C0.5,20.265 0.5,16.822 0.744,14.105C0.988,11.395 1.47,9.455 2.404,7.815C3.691,5.56 5.56,3.691 7.816,2.405C9.455,1.468 11.395,0.986 14.105,0.743C16.822,0.5 20.265,0.5 24.9,0.5L35.1,0.5C39.735,0.5 43.178,0.5 45.895,0.744C48.605,0.987 50.545,1.469 52.185,2.404C54.44,3.691 56.309,5.56 57.595,7.815C58.53,9.455 59.012,11.395 59.255,14.105C59.499,16.822 59.5,20.265 59.5,24.899L59.5,35.099C59.5,39.734 59.5,43.177 59.256,45.895C59.012,48.605 58.53,50.545 57.596,52.184C56.309,54.439 54.44,56.308 52.184,57.594C50.545,58.53 48.605,59.012 45.895,59.255C43.178,59.499 39.735,59.499 35.1,59.499L24.9,59.499C20.265,59.499 16.822,59.499 14.105,59.255C11.395,59.012 9.455,58.53 7.815,57.595C5.56,56.308 3.691,54.439 2.405,52.184C1.47,50.544 0.988,48.604 0.745,45.894C0.5,43.178 0.5,39.734 0.5,35.1L0.5,24.9Z" style="fill:none;fill-rule:nonzero;"/>
        <path d="M39.192,29.192C44.269,24.115 44.269,15.884 39.192,10.807C34.116,5.73 25.884,5.73 20.808,10.807C15.731,15.884 15.731,24.115 20.808,29.192L22.095,30.483C23.232,31.625 23.801,32.195 24.192,32.87C24.459,33.332 24.664,33.827 24.8,34.343C25,35.098 25,35.903 25,37.514L25,48.75C25,49.827 25,50.365 25.134,50.869C25.225,51.214 25.362,51.545 25.541,51.853C25.803,52.303 26.184,52.684 26.945,53.445L27.239,53.74C27.893,54.394 28.221,54.721 28.604,54.826C28.864,54.896 29.137,54.896 29.396,54.826C29.779,54.721 30.106,54.394 30.761,53.74L34.239,50.261C34.894,49.607 35.221,49.28 35.326,48.896C35.397,48.637 35.397,48.364 35.326,48.105C35.221,47.721 34.894,47.394 34.239,46.74L33.761,46.261C33.106,45.607 32.779,45.28 32.674,44.896C32.603,44.637 32.603,44.364 32.674,44.105C32.779,43.721 33.106,43.394 33.761,42.74L34.239,42.261C34.894,41.607 35.221,41.28 35.326,40.896C35.397,40.637 35.397,40.364 35.326,40.105C35.221,39.721 34.894,39.394 34.239,38.74L33.747,38.247C33.097,37.597 32.773,37.273 32.667,36.892C32.596,36.634 32.595,36.362 32.664,36.104C32.766,35.722 33.089,35.394 33.733,34.74L39.193,29.193L39.192,29.192Z" style="fill:rgb(255,151,76);fill-rule:nonzero;stroke:white;stroke-width:2px;"/>
        <circle cx="30" cy="17" r="4" style="fill:rgb(235,139,71);stroke:white;stroke-width:2px;"/>
    </g>
</svg>
