<?xml version="1.0" encoding="UTF-8" standalone="no"?>
<!DOCTYPE svg PUBLIC "-//W3C//DTD SVG 1.1//EN" "http://www.w3.org/Graphics/SVG/1.1/DTD/svg11.dtd">
<svg width="100%" height="100%" viewBox="0 0 60 60" fill="none" xmlns="http://www.w3.org/2000/svg">
<rect width="60" height="60" rx="3" fill="#1DC956"/>
<path d="M30.4856 29.1254L30 28.8556L29.5144 29.1254L16.7383 36.2232L16.6908 36.2496C15.8255 36.7302 15.1098 37.1279 14.583 37.4939C14.0525 37.8626 13.552 38.3044 13.3123 38.938C13.0536 39.622 13.0536 40.377 13.3123 41.061C13.552 41.6946 14.0525 42.1364 14.583 42.5051C15.1098 42.8712 15.8255 43.2688 16.6908 43.7495L16.7383 43.7759L23.065 47.2907C23.125 47.324 23.1843 47.357 23.243 47.3896C25.5694 48.6824 26.9567 49.4533 28.456 49.7144C29.4776 49.8923 30.5224 49.8923 31.544 49.7144C33.0433 49.4533 34.4306 48.6824 36.757 47.3896C36.8157 47.357 36.875 47.324 36.935 47.2907L43.2617 43.7759L43.3092 43.7495C44.1745 43.2688 44.8902 42.8712 45.417 42.5051C45.9475 42.1364 46.448 41.6946 46.6877 41.061L45.7524 40.7072L46.6877 41.061C46.9464 40.377 46.9464 39.622 46.6877 38.938L45.7524 39.2919L46.6877 38.938C46.448 38.3044 45.9475 37.8626 45.417 37.4939C44.8902 37.1279 44.1746 36.7303 43.3093 36.2496L43.2617 36.2232L30.4856 29.1254Z" fill="#1FAD7E" stroke="white" stroke-width="2"/>
<path d="M30.4856 19.1254L30 18.8556L29.5144 19.1254L16.7383 26.2232L16.6908 26.2496C15.8255 26.7302 15.1098 27.1279 14.583 27.4939C14.0525 27.8626 13.552 28.3044 13.3123 28.938C13.0536 29.622 13.0536 30.377 13.3123 31.061C13.552 31.6946 14.0525 32.1364 14.583 32.5051C15.1098 32.8712 15.8255 33.2688 16.6908 33.7495L16.7383 33.7759L23.065 37.2907C23.125 37.324 23.1843 37.357 23.243 37.3896C25.5694 38.6824 26.9567 39.4533 28.456 39.7144C29.4776 39.8923 30.5224 39.8923 31.544 39.7144C33.0433 39.4533 34.4306 38.6824 36.757 37.3896C36.8157 37.357 36.875 37.324 36.935 37.2907L43.2617 33.7759L43.3092 33.7495C44.1745 33.2688 44.8902 32.8712 45.417 32.5051C45.9475 32.1364 46.448 31.6946 46.6877 31.061L45.7524 30.7072L46.6877 31.061C46.9464 30.377 46.9464 29.622 46.6877 28.938L45.7524 29.2919L46.6877 28.938C46.448 28.3044 45.9475 27.8626 45.417 27.4939C44.8902 27.1279 44.1746 26.7303 43.3093 26.2496L43.2617 26.2232L30.4856 19.1254Z" fill="#2BEE6C" stroke="white" stroke-width="2"/>
<path d="M46.6877 21.061L45.7524 20.7072L46.6877 21.061C46.9464 20.377 46.9464 19.622 46.6877 18.938L45.7524 19.2919L46.6877 18.938C46.448 18.3044 45.9475 17.8626 45.417 17.4939C44.8902 17.1279 44.1746 16.7303 43.3093 16.2496L43.2617 16.2232L36.935 12.7083C36.875 12.675 36.8157 12.642 36.757 12.6094C34.4306 11.3166 33.0433 10.5457 31.544 10.2846C30.5224 10.1067 29.4776 10.1067 28.456 10.2846C26.9567 10.5457 25.5694 11.3166 23.243 12.6094C23.1843 12.6421 23.125 12.675 23.065 12.7083L16.7383 16.2232L16.6908 16.2496C15.8255 16.7302 15.1098 17.1279 14.583 17.4939C14.0525 17.8626 13.552 18.3044 13.3123 18.938C13.0536 19.622 13.0536 20.377 13.3123 21.061C13.552 21.6946 14.0525 22.1364 14.583 22.5051C15.1098 22.8712 15.8255 23.2688 16.6908 23.7495L16.7383 23.7759L23.065 27.2907C23.125 27.324 23.1843 27.357 23.243 27.3896C25.5694 28.6824 26.9567 29.4533 28.456 29.7144C29.4776 29.8923 30.5224 29.8923 31.544 29.7144C33.0433 29.4533 34.4306 28.6824 36.757 27.3896C36.8157 27.357 36.875 27.324 36.935 27.2907L43.2617 23.7759L43.3092 23.7495C44.1745 23.2688 44.8902 22.8712 45.417 22.5051C45.9475 22.1364 46.448 21.6946 46.6877 21.061Z" fill="#86F999" stroke="white" stroke-width="2"/>
<rect x="0.5" y="0.5" width="59" height="59" rx="2.5" stroke="#141414" stroke-opacity="0.1"/>
</svg>
