<?xml version="1.0" encoding="UTF-8" standalone="no"?>
<!DOCTYPE svg PUBLIC "-//W3C//DTD SVG 1.1//EN" "http://www.w3.org/Graphics/SVG/1.1/DTD/svg11.dtd">
<svg width="100%" height="100%" viewBox="0 0 60 60" version="1.1" xmlns="http://www.w3.org/2000/svg" xmlns:xlink="http://www.w3.org/1999/xlink" xml:space="preserve" xmlns:serif="http://www.serif.com/" style="fill-rule:evenodd;clip-rule:evenodd;">
    <g>
        <path d="M60,3C60,1.344 58.656,0 57,0L3,0C1.344,0 0,1.344 0,3L0,57C0,58.656 1.344,60 3,60L57,60C58.656,60 60,58.656 60,57L60,3Z" style="fill:rgb(198,83,198);"/>
        <path d="M52.094,47.344C52.094,43.098 50.658,37.787 46.209,34.944C46.38,34.569 46.469,34.161 46.469,33.749C46.469,32.55 45.719,31.471 44.594,31.053L44.594,30.234C44.595,29.087 44.107,27.993 43.254,27.227C44.301,24.851 43.215,22.034 40.844,20.975L40.844,15.469C40.844,9.221 35.779,4.156 29.531,4.156C23.284,4.156 18.219,9.221 18.219,15.469L18.219,17.621C17.073,18.181 16.343,19.349 16.343,20.625C16.343,21.363 16.588,22.081 17.039,22.666C16.001,23.567 15.404,24.876 15.406,26.25C15.405,27.281 15.74,28.285 16.362,29.108C13.895,30.376 12.848,33.401 14.004,35.923C10.944,40.052 7.906,44.221 7.906,51.563C7.906,54.231 8.27,56.419 8.637,57.948C8.821,58.713 9.005,59.314 9.146,59.728C9.216,59.934 9.291,60.137 9.371,60.339L9.386,60.376L9.391,60.387L9.392,60.391L9.392,60.393L9.393,60.393L10.313,60L9.393,60.394L9.653,61L47.913,61L48.204,60.51L47.344,60L48.204,60.51L48.204,60.509L48.206,60.507L48.208,60.502L48.218,60.485L48.253,60.425L48.38,60.2C48.488,60.005 48.64,59.723 48.821,59.365C49.184,58.651 49.666,57.633 50.149,56.412C51.108,53.985 52.094,50.687 52.094,47.344Z" style="fill:rgb(232,125,232);fill-rule:nonzero;stroke:white;stroke-width:2px;"/>
        <path d="M26.5,29.5C23.5,29 21,26.5 20.997,22.5L20.999,15.5C20.999,15.034 20.999,14.802 21.025,14.607C21.202,13.266 22.266,12.202 23.607,12.025C23.802,11.999 24.035,11.999 24.5,11.999C26.5,11.999 27,9.499 27,9.499C27,9.499 27,11.999 29.5,11.999C30.898,11.999 31.597,11.999 32.148,12.228C32.883,12.532 33.467,13.116 33.772,13.851C34,14.403 34,15.101 34,16.5L34,22.5C34,26.5 31,29.5 27.5,29.5C28.85,29.73 31.5,29.5 34,27.5L34,37.03C34,38.5 31.495,40 28,40C24.505,40 22,38.5 22,37.03L24,34L26.5,35.5L26.5,29.5ZM26,47L30.5,47C33,47 33.5,51 33.5,52.5L30.5,52.5L29.5,51L26,51L26,47ZM19.75,52.5L24,52.5L24,57L16,57C16,56 17,52.5 19.75,52.5Z" style="fill:white;"/>
    </g>
    <path d="M59.5,3C59.5,1.62 58.38,0.5 57,0.5L3,0.5C1.62,0.5 0.5,1.62 0.5,3L0.5,57C0.5,58.38 1.62,59.5 3,59.5L57,59.5C58.38,59.5 59.5,58.38 59.5,57L59.5,3Z" style="fill:none;"/>
</svg>
