<?xml version="1.0" encoding="UTF-8" standalone="no"?>
<!DOCTYPE svg PUBLIC "-//W3C//DTD SVG 1.1//EN" "http://www.w3.org/Graphics/SVG/1.1/DTD/svg11.dtd">
<svg width="100%" height="100%" viewBox="0 0 60 60" fill="none" xmlns="http://www.w3.org/2000/svg">
<g clip-path="url(#clip0_1998_52866)">
<path d="M0 24.8995C0 15.6481 0 11.0223 1.97053 7.56763C3.3015 5.2342 5.23468 3.30101 7.56812 1.97004C11.0228 -0.000488281 15.6485 -0.000488281 24.9 -0.000488281H35.1C44.3514 -0.000488281 48.9772 -0.000488281 52.4319 1.97004C54.7653 3.30101 56.6985 5.2342 58.0295 7.56763C60 11.0223 60 15.6481 60 24.8995V35.0995C60 44.351 60 48.9767 58.0295 52.4314C56.6985 54.7648 54.7653 56.698 52.4319 58.029C48.9772 59.9995 44.3514 59.9995 35.1 59.9995H24.9C15.6485 59.9995 11.0228 59.9995 7.56812 58.029C5.23468 56.698 3.3015 54.7648 1.97053 52.4314C0 48.9767 0 44.351 0 35.0995V24.8995Z" fill="#794CFF"/>
<path d="M0.5 24.8995C0.5 20.2647 0.50047 16.8216 0.744315 14.1045C0.987552 11.3941 1.46987 9.45455 2.40484 7.81536C3.69145 5.55971 5.56019 3.69096 7.81585 2.40435C9.45504 1.46938 11.3946 0.987064 14.105 0.743826C16.8221 0.499981 20.2652 0.499512 24.9 0.499512H35.1C39.7348 0.499512 43.1779 0.499981 45.895 0.743826C48.6054 0.987064 50.545 1.46938 52.1841 2.40435C54.4398 3.69096 56.3086 5.55971 57.5952 7.81536C58.5301 9.45455 59.0124 11.3941 59.2557 14.1045C59.4995 16.8216 59.5 20.2647 59.5 24.8995V35.0995C59.5 39.7343 59.4995 43.1774 59.2557 45.8945C59.0124 48.6049 58.5301 50.5445 57.5952 52.1837C56.3086 54.4393 54.4398 56.3081 52.1841 57.5947C50.545 58.5296 48.6054 59.012 45.895 59.2552C43.1779 59.499 39.7348 59.4995 35.1 59.4995H24.9C20.2652 59.4995 16.8221 59.499 14.105 59.2552C11.3946 59.012 9.45504 58.5296 7.81585 57.5947C5.56019 56.3081 3.69145 54.4393 2.40484 52.1837C1.46987 50.5445 0.987552 48.6049 0.744315 45.8945C0.50047 43.1774 0.5 39.7343 0.5 35.0995V24.8995Z" stroke="#141414" stroke-opacity="0.1"/>
<path d="M35.1405 31.5023C35.1194 30.9645 35.3881 30.4566 35.8447 30.1714C36.1208 29.9989 36.4763 29.848 36.7922 29.7692C37.3144 29.6389 37.8665 29.7984 38.2387 30.1872C38.8509 30.8264 39.3005 31.6844 39.8034 32.4087C40.2797 33.095 41.4696 33.2519 41.9688 32.5054C42.484 31.7349 42.9406 30.8236 43.5721 30.1406C43.9376 29.7454 44.4868 29.5763 45.0112 29.6975C45.3284 29.7708 45.6865 29.9154 45.9656 30.0831C46.427 30.3602 46.7046 30.8634 46.6929 31.4015C46.6732 32.3091 46.3766 33.2579 46.2159 34.148C46.0611 35.0056 46.9046 35.8345 47.7593 35.6648C48.6465 35.4886 49.59 35.1754 50.4971 35.1399C51.035 35.1188 51.5429 35.3875 51.828 35.8441C52.0005 36.1202 52.1514 36.4757 52.2302 36.7916C52.3605 37.3138 52.201 37.8659 51.8122 38.2382C51.1731 38.8502 50.3152 39.2998 49.5909 39.8026C48.9047 40.279 48.7474 41.469 49.494 41.9682C50.2646 42.4834 51.1758 42.94 51.8588 43.5715C52.254 43.937 52.4231 44.4861 52.3019 45.0106C52.2286 45.3278 52.084 45.6858 51.9163 45.965C51.6392 46.4264 51.1361 46.704 50.5979 46.6923C49.6905 46.6726 48.7418 46.376 47.8517 46.2153C46.9941 46.0605 46.165 46.9042 46.3347 47.759C46.5109 48.6462 46.824 49.5895 46.8595 50.4965C46.8806 51.0344 46.6119 51.5423 46.1553 51.8274C45.8792 51.9999 45.5237 52.1508 45.2078 52.2296C44.6856 52.3599 44.1335 52.2004 43.7613 51.8116C43.1493 51.1725 42.6997 50.3147 42.1969 49.5905C41.7204 48.9041 40.5303 48.7471 40.031 49.4937C39.5159 50.2642 39.0593 51.1753 38.4279 51.8582C38.0625 52.2534 37.5133 52.4225 36.9888 52.3013C36.6716 52.228 36.3136 52.0834 36.0345 51.9157C35.573 51.6386 35.2954 51.1354 35.3071 50.5973C35.3268 49.6899 35.6234 48.7412 35.7841 47.8512C35.9389 46.9935 35.0952 46.1644 34.2403 46.3341C33.3532 46.5103 32.4099 46.8234 31.5029 46.8589C30.9651 46.88 30.4572 46.6113 30.172 46.1547C29.9995 45.8786 29.8486 45.5231 29.7698 45.2072C29.6395 44.685 29.799 44.1329 30.1878 43.7607C30.827 43.1486 31.6849 42.699 32.4092 42.1961C33.0956 41.7197 33.2523 40.5296 32.5057 40.0304C31.7353 39.5153 30.8241 39.0587 30.1412 38.4273C29.746 38.0618 29.5769 37.5127 29.6981 36.9882C29.7714 36.671 29.916 36.313 30.0837 36.0338C30.3608 35.5724 30.864 35.2948 31.4021 35.3065C32.3097 35.3262 33.2584 35.6228 34.1486 35.7835C35.0061 35.9383 35.8351 35.0948 35.6653 34.2401C35.4892 33.3529 35.176 32.4094 35.1405 31.5023Z" fill="#906EF7" stroke="white" stroke-width="2"/>
<path d="M20.7706 8.22308C20.9036 7.51362 21.5231 6.99951 22.2449 6.99951H23.7551C24.4769 6.99951 25.0964 7.51362 25.2294 8.22308C25.5051 9.69354 25.4829 11.6316 27.1202 12.2601C27.3092 12.3326 27.4958 12.4101 27.6798 12.4921C29.2818 13.2067 30.6374 11.8194 31.8721 10.9747C32.4678 10.5671 33.2694 10.6416 33.7798 11.152L34.8477 12.2199C35.3581 12.7303 35.4326 13.5318 35.025 14.1276C34.1802 15.3622 32.7931 16.7178 33.5077 18.3197C33.5898 18.5038 33.6672 18.6905 33.7398 18.8795C34.3683 20.5166 36.3061 20.4944 37.7764 20.7701C38.4859 20.9031 39 21.5226 39 22.2444V23.7546C39 24.4764 38.4859 25.0959 37.7764 25.2289C36.3061 25.5046 34.3685 25.4825 33.7401 27.1196C33.6675 27.3088 33.59 27.4956 33.5079 27.6798C32.7934 29.2816 34.1803 30.6369 35.025 31.8714C35.4326 32.4672 35.3581 33.2687 34.8477 33.7791L33.7798 34.847C33.2694 35.3574 32.4678 35.4319 31.8721 35.0243C30.6376 34.1796 29.2823 32.793 27.6806 33.5075C27.4962 33.5898 27.3093 33.6673 27.12 33.74C25.483 34.3683 25.5051 36.3057 25.2294 37.7759C25.0964 38.4854 24.4769 38.9995 23.7551 38.9995H22.2449C21.5231 38.9995 20.9036 38.4854 20.7706 37.7759C20.4949 36.3057 20.517 34.3683 18.88 33.74C18.6908 33.6673 18.5039 33.5898 18.3196 33.5076C16.7179 32.7931 15.3625 34.1799 14.1279 35.0246C13.5322 35.4322 12.7307 35.3577 12.2203 34.8473L11.1524 33.7794C10.642 33.269 10.5675 32.4674 10.9751 31.8717C11.8198 30.6371 13.2067 29.2817 12.4922 27.6799C12.41 27.4957 12.3325 27.3089 12.2599 27.1196C11.6315 25.4825 9.69392 25.5046 8.22357 25.2289C7.51411 25.0959 7 24.4764 7 23.7546V22.2444C7 21.5226 7.51411 20.9031 8.22357 20.7701C9.69394 20.4944 11.6317 20.5166 12.2602 18.8795C12.3328 18.6904 12.4103 18.5037 12.4924 18.3196C13.207 16.7176 11.8198 15.362 10.975 14.1273C10.5674 13.5316 10.6419 12.73 11.1523 12.2196L12.2202 11.1517C12.7306 10.6413 13.5322 10.5668 14.1279 10.9744C15.3626 11.8192 16.7184 13.2066 18.3204 12.4921C18.5044 12.41 18.6909 12.3326 18.8799 12.2601C20.5171 11.6316 20.4949 9.69354 20.7706 8.22308Z" fill="#906EF7" stroke="white" stroke-width="2"/>
<circle cx="23" cy="22.9995" r="6" fill="#794CFF" stroke="white" stroke-width="2"/>
<circle cx="41" cy="40.9995" r="4" fill="#794CFF" stroke="white" stroke-width="2"/>
</g>
<defs>
<clipPath id="clip0_1998_52866">
<rect width="60" height="60" fill="white"/>
</clipPath>
</defs>
</svg>
