<svg width="14" height="15" viewBox="0 0 14 15" fill="none" xmlns="http://www.w3.org/2000/svg">
<path fill-rule="evenodd" clip-rule="evenodd" d="M1.79289 2.77873C2.18342 2.38821 2.81658 2.38821 3.20711 2.77873L7 6.57163L10.7929 2.77873C11.1834 2.38821 11.8166 2.38821 12.2071 2.77873C12.5976 3.16926 12.5976 3.80242 12.2071 4.19295L8.41421 7.98584L12.2071 11.7787C12.5976 12.1693 12.5976 12.8024 12.2071 13.1929C11.8166 13.5835 11.1834 13.5835 10.7929 13.1929L7 9.40005L3.20711 13.1929C2.81658 13.5835 2.18342 13.5835 1.79289 13.1929C1.40237 12.8024 1.40237 12.1693 1.79289 11.7787L5.58579 7.98584L1.79289 4.19295C1.40237 3.80242 1.40237 3.16926 1.79289 2.77873Z" fill="white"/>
</svg>
