<svg width="21" height="20" viewBox="0 0 21 20" fill="none" xmlns="http://www.w3.org/2000/svg">
<path d="M3.01074 5.99463C3.01074 4.34074 4.35148 3 6.00537 3H7.01074C7.56303 3 8.01074 2.55228 8.01074 2C8.01074 1.44772 7.56303 1 7.01074 1H6.00537C3.24691 1 1.01074 3.23617 1.01074 5.99463V7C1.01074 7.55228 1.45846 8 2.01074 8C2.56303 8 3.01074 7.55228 3.01074 7V5.99463Z" fill="white"/>
<path d="M13.0107 1C12.4585 1 12.0107 1.44772 12.0107 2C12.0107 2.55228 12.4585 3 13.0107 3H14.0107C15.6676 3 17.0107 4.34315 17.0107 6V7C17.0107 7.55228 17.4585 8 18.0107 8C18.563 8 19.0107 7.55228 19.0107 7V6C19.0107 3.23858 16.7722 1 14.0107 1H13.0107Z" fill="white"/>
<path d="M3.01074 13C3.01074 12.4477 2.56303 12 2.01074 12C1.45846 12 1.01074 12.4477 1.01074 13V14C1.01074 16.7614 3.24932 19 6.01074 19H7.01074C7.56303 19 8.01074 18.5523 8.01074 18C8.01074 17.4477 7.56303 17 7.01074 17H6.01074C4.35389 17 3.01074 15.6569 3.01074 14V13Z" fill="white"/>
<path d="M19.0107 13C19.0107 12.4477 18.563 12 18.0107 12C17.4585 12 17.0107 12.4477 17.0107 13L17.0107 14.0032C17.009 15.6575 15.6683 16.9983 14.0139 17L13.0107 17C12.4585 17 12.0107 17.4477 12.0107 18C12.0107 18.5523 12.4585 19 13.0107 19L14.016 19C16.7733 18.9971 19.0078 16.7626 19.0107 14.0053L19.0107 13Z" fill="white"/>
<path d="M5.31185 6.36177C5.26074 6.55252 5.26074 6.78501 5.26074 7.25C5.26074 7.71499 5.26074 7.94748 5.31185 8.13823C5.45055 8.65587 5.85488 9.06019 6.37251 9.19889C6.56326 9.25 6.79576 9.25 7.26074 9.25C7.72573 9.25 7.95822 9.25 8.14897 9.19889C8.66661 9.06019 9.07093 8.65587 9.20963 8.13823C9.26074 7.94748 9.26074 7.71499 9.26074 7.25C9.26074 6.78501 9.26074 6.55252 9.20963 6.36177C9.07093 5.84413 8.66661 5.43981 8.14897 5.30111C7.95822 5.25 7.72573 5.25 7.26074 5.25C6.79576 5.25 6.56326 5.25 6.37251 5.30111C5.85488 5.43981 5.45055 5.84413 5.31185 6.36177Z" fill="white"/>
<path d="M10.8119 6.36177C10.7607 6.55252 10.7607 6.78501 10.7607 7.25C10.7607 7.71499 10.7607 7.94748 10.8119 8.13823C10.9506 8.65587 11.3549 9.06019 11.8725 9.19889C12.0633 9.25 12.2958 9.25 12.7607 9.25C13.2257 9.25 13.4582 9.25 13.649 9.19889C14.1666 9.06019 14.5709 8.65587 14.7096 8.13823C14.7607 7.94748 14.7607 7.71499 14.7607 7.25C14.7607 6.78501 14.7607 6.55252 14.7096 6.36177C14.5709 5.84413 14.1666 5.43981 13.649 5.30111C13.4582 5.25 13.2257 5.25 12.7607 5.25C12.2958 5.25 12.0633 5.25 11.8725 5.30111C11.3549 5.43981 10.9506 5.84413 10.8119 6.36177Z" fill="white"/>
<path d="M5.26074 12.75C5.26074 12.285 5.26074 12.0525 5.31185 11.8618C5.45055 11.3441 5.85488 10.9398 6.37251 10.8011C6.56326 10.75 6.79576 10.75 7.26074 10.75C7.72573 10.75 7.95822 10.75 8.14897 10.8011C8.66661 10.9398 9.07093 11.3441 9.20963 11.8618C9.26074 12.0525 9.26074 12.285 9.26074 12.75C9.26074 13.215 9.26074 13.4475 9.20963 13.6382C9.07093 14.1559 8.66661 14.5602 8.14897 14.6989C7.95822 14.75 7.72573 14.75 7.26074 14.75C6.79576 14.75 6.56326 14.75 6.37251 14.6989C5.85488 14.5602 5.45055 14.1559 5.31185 13.6382C5.26074 13.4475 5.26074 13.215 5.26074 12.75Z" fill="white"/>
<path d="M10.8119 11.8618C10.7607 12.0525 10.7607 12.285 10.7607 12.75C10.7607 13.215 10.7607 13.4475 10.8119 13.6382C10.9506 14.1559 11.3549 14.5602 11.8725 14.6989C12.0633 14.75 12.2958 14.75 12.7607 14.75C13.2257 14.75 13.4582 14.75 13.649 14.6989C14.1666 14.5602 14.5709 14.1559 14.7096 13.6382C14.7607 13.4475 14.7607 13.215 14.7607 12.75C14.7607 12.285 14.7607 12.0525 14.7096 11.8618C14.5709 11.3441 14.1666 10.9398 13.649 10.8011C13.4582 10.75 13.2257 10.75 12.7607 10.75C12.2958 10.75 12.0633 10.75 11.8725 10.8011C11.3549 10.9398 10.9506 11.3441 10.8119 11.8618Z" fill="white"/>
</svg>
