<svg width="21" height="20" viewBox="0 0 21 20" fill="none" xmlns="http://www.w3.org/2000/svg">
<path fill-rule="evenodd" clip-rule="evenodd" d="M10.0107 3C7.29228 3 4.93398 4.5494 3.77391 6.8179C3.28627 7.77149 3.01074 8.85212 3.01074 10C3.01074 10.4933 3.06163 10.9743 3.15841 11.4381L11.4488 3.14775C10.9846 3.05089 10.5036 3 10.0107 3ZM13.4968 3.92818L3.93895 13.486C4.25792 14.0402 4.65077 14.5469 5.10407 14.9925L15.0032 5.0933C14.5576 4.6399 14.051 4.24712 13.4968 3.92818ZM16.1995 6.72549L6.73624 16.1887C7.71297 16.7068 8.82683 17 10.0107 17C12.6113 17 14.8819 15.5824 16.09 13.4731C16.6756 12.4504 17.0107 11.2659 17.0107 10C17.0107 8.81609 16.7175 7.70223 16.1995 6.72549ZM1.99324 5.90731C3.48185 2.99632 6.5123 1 10.0107 1C12.9268 1 15.5191 2.38793 17.1621 4.53509C18.3215 6.05016 19.0107 7.94601 19.0107 10C19.0107 11.6237 18.5799 13.1498 17.8255 14.467C16.2757 17.1731 13.3572 19 10.0107 19C7.95675 19 6.06091 18.3107 4.54583 17.1514C3.59282 16.4221 2.78979 15.5065 2.19104 14.4584C1.43974 13.1431 1.01074 11.6202 1.01074 10C1.01074 8.52823 1.36479 7.13624 1.99324 5.90731Z" fill="white"/>
</svg>
