<svg width="16" height="17" viewBox="0 0 16 17" fill="none" xmlns="http://www.w3.org/2000/svg">
<path fill-rule="evenodd" clip-rule="evenodd" d="M8 2.00134C4.68629 2.00134 2 4.68763 2 8.00134C2 11.3151 4.68629 14.0013 8 14.0013C11.3137 14.0013 14 11.3151 14 8.00134C14 4.68763 11.3137 2.00134 8 2.00134ZM0 8.00134C0 3.58307 3.58172 0.00134277 8 0.00134277C12.4183 0.00134277 16 3.58307 16 8.00134C16 12.4196 12.4183 16.0013 8 16.0013C3.58172 16.0013 0 12.4196 0 8.00134ZM10.6601 5.34903C10.9374 5.62632 11.027 6.04009 10.8893 6.40726L9.82863 9.23569C9.72722 9.50611 9.51385 9.71949 9.24343 9.8209L6.415 10.8816C6.04782 11.0192 5.63406 10.9296 5.35677 10.6523C5.07948 10.375 4.98986 9.96128 5.12755 9.5941L6.18821 6.76568C6.28962 6.49525 6.50299 6.28188 6.77341 6.18047L9.60184 5.11981C9.96902 4.98212 10.3828 5.07174 10.6601 5.34903ZM7.90126 7.89353L7.77268 8.23643L8.11557 8.10784L8.24416 7.76494L7.90126 7.89353Z" fill="white"/>
</svg>
