<svg width="16" height="16" viewBox="0 0 16 16" fill="none" xmlns="http://www.w3.org/2000/svg">
<path fill-rule="evenodd" clip-rule="evenodd" d="M9.49622 8.12952e-07H11.1705C11.8527 -1.83797e-05 12.4303 -3.4593e-05 12.9022 0.0423201C13.3978 0.086792 13.8732 0.184059 14.3182 0.437897C14.8367 0.733667 15.2663 1.16326 15.5621 1.68181C15.8159 2.12683 15.9132 2.60222 15.9577 3.09777C16 3.56974 16 4.14733 16 4.82959V6.50375C16 7.186 16 7.7636 15.9577 8.23556C15.9132 8.73111 15.8159 9.20651 15.5621 9.65153C15.2663 10.1701 14.8367 10.5997 14.3182 10.8954C13.8732 11.1493 13.3978 11.2465 12.9022 11.291C12.4683 11.33 11.9451 11.3331 11.3333 11.3333C11.3331 11.9451 11.33 12.4683 11.291 12.9022C11.2465 13.3978 11.1493 13.8732 10.8954 14.3182C10.5997 14.8367 10.1701 15.2663 9.65153 15.5621C9.20651 15.8159 8.73111 15.9132 8.23556 15.9577C7.7636 16 7.186 16 6.50375 16H4.82959C4.14733 16 3.56974 16 3.09777 15.9577C2.60222 15.9132 2.12683 15.8159 1.68181 15.5621C1.16326 15.2663 0.733667 14.8367 0.437897 14.3182C0.184059 13.8732 0.086792 13.3978 0.0423201 12.9022C-3.4593e-05 12.4303 -1.83797e-05 11.8527 8.12953e-07 11.1705V9.49622C-1.83797e-05 8.81398 -3.4593e-05 8.2364 0.0423201 7.76444C0.086792 7.26889 0.184059 6.7935 0.437896 6.34847C0.733667 5.82993 1.16326 5.40033 1.68181 5.10456C2.12683 4.85073 2.60222 4.75346 3.09777 4.70899C3.5317 4.67004 4.05492 4.66692 4.66668 4.66669C4.66692 4.05492 4.67004 3.5317 4.70899 3.09777C4.75346 2.60222 4.85073 2.12683 5.10456 1.68181C5.40033 1.16326 5.82993 0.733667 6.34847 0.437897C6.7935 0.184059 7.26889 0.086792 7.76444 0.0423201C8.2364 -3.4593e-05 8.81398 -1.83797e-05 9.49622 8.12952e-07ZM4.66669 6.66672C4.04265 6.66715 3.61255 6.67083 3.27654 6.70098C2.91818 6.73314 2.7651 6.78914 2.67272 6.84183C2.46531 6.96013 2.29347 7.13197 2.17516 7.33939C2.12247 7.43176 2.06647 7.58485 2.03431 7.94321C2.00094 8.31509 2 8.80223 2 9.54V11.1267C2 11.8644 2.00094 12.3516 2.03431 12.7235C2.06647 13.0818 2.12247 13.2349 2.17516 13.3273C2.29347 13.5347 2.46531 13.7065 2.67272 13.8248C2.7651 13.8775 2.91818 13.9335 3.27654 13.9657C3.64843 13.9991 4.13557 14 4.87334 14H6.46C7.19777 14 7.68491 13.9991 8.0568 13.9657C8.41515 13.9335 8.56824 13.8775 8.66061 13.8248C8.86803 13.7065 9.03987 13.5347 9.15818 13.3273C9.21087 13.2349 9.26686 13.0818 9.29902 12.7235C9.32918 12.3875 9.33285 11.9574 9.33328 11.3333C8.72155 11.3331 8.19835 11.33 7.76444 11.291C7.26889 11.2465 6.7935 11.1493 6.34847 10.8954C5.82993 10.5997 5.40033 10.1701 5.10456 9.65153C4.85073 9.20651 4.75346 8.73111 4.70899 8.23556C4.67005 7.80165 4.66692 7.27845 4.66669 6.66672ZM7.94321 2.03431C7.58485 2.06647 7.43176 2.12247 7.33939 2.17516C7.13197 2.29347 6.96013 2.46531 6.84183 2.67272C6.78914 2.7651 6.73314 2.91818 6.70098 3.27654C6.66761 3.64843 6.66667 4.13557 6.66667 4.87334V6.46C6.66667 7.19777 6.66761 7.68491 6.70098 8.0568C6.73314 8.41515 6.78914 8.56824 6.84183 8.66061C6.96013 8.86803 7.13197 9.03987 7.33939 9.15818C7.43176 9.21087 7.58485 9.26686 7.94321 9.29902C8.31509 9.3324 8.80223 9.33333 9.54 9.33333H11.1267C11.8644 9.33333 12.3516 9.3324 12.7235 9.29902C13.0818 9.26686 13.2349 9.21087 13.3273 9.15818C13.5347 9.03987 13.7065 8.86803 13.8248 8.66061C13.8775 8.56824 13.9335 8.41515 13.9657 8.0568C13.9991 7.68491 14 7.19777 14 6.46V4.87334C14 4.13557 13.9991 3.64843 13.9657 3.27654C13.9335 2.91818 13.8775 2.7651 13.8248 2.67272C13.7065 2.46531 13.5347 2.29347 13.3273 2.17516C13.2349 2.12247 13.0818 2.06647 12.7235 2.03431C12.3516 2.00094 11.8644 2 11.1267 2H9.54C8.80223 2 8.31509 2.00094 7.94321 2.03431Z" fill="white"/>
</svg>
