<svg width="16" height="17" viewBox="0 0 16 17" fill="none" xmlns="http://www.w3.org/2000/svg">
<path fill-rule="evenodd" clip-rule="evenodd" d="M6.06925 1.00134L6.63791 1.00134C7.1902 1.00134 7.63791 1.44906 7.63791 2.00134C7.63791 2.55363 7.1902 3.00134 6.63791 3.00134H6.12363C5.13714 3.00134 4.47759 3.00272 3.97736 3.05691C3.49584 3.10908 3.28191 3.20041 3.14282 3.30146C3.00942 3.39839 2.8921 3.5157 2.79517 3.64911C2.69412 3.7882 2.6028 4.00213 2.55063 4.48365C2.49643 4.98388 2.49506 5.64342 2.49506 6.62992V9.37277C2.49506 10.3593 2.49643 11.0188 2.55063 11.519C2.6028 12.0006 2.69412 12.2145 2.79517 12.3536C2.8921 12.487 3.00942 12.6043 3.14282 12.7012C3.28191 12.8023 3.49584 12.8936 3.97736 12.9458C4.47759 13 5.13714 13.0013 6.12363 13.0013H6.63791C7.1902 13.0013 7.63791 13.4491 7.63791 14.0013C7.63791 14.5536 7.1902 15.0013 6.63791 15.0013L6.06926 15.0013C5.15137 15.0014 4.38269 15.0014 3.76194 14.9341C3.11025 14.8635 2.5041 14.7093 1.96725 14.3193C1.66406 14.099 1.39742 13.8323 1.17714 13.5291C0.787096 12.9923 0.632869 12.3862 0.562263 11.7345C0.495009 11.1137 0.495031 10.345 0.495057 9.42716V6.57553C0.495031 5.65765 0.495009 4.88897 0.562263 4.26822C0.632869 3.61654 0.787096 3.01039 1.17714 2.47354C1.39742 2.17035 1.66406 1.90371 1.96725 1.68343C2.5041 1.29338 3.11025 1.13916 3.76194 1.06855C4.38269 1.0013 5.15137 1.00132 6.06925 1.00134ZM9.51206 3.00855C9.90259 2.61803 10.5358 2.61803 10.9263 3.00855L15.212 7.29426C15.6025 7.68479 15.6025 8.31795 15.212 8.70848L10.9263 12.9942C10.5358 13.3847 9.90259 13.3847 9.51206 12.9942C9.12154 12.6037 9.12154 11.9705 9.51206 11.58L12.0907 9.00137H6.78077C6.22849 9.00137 5.78077 8.55366 5.78077 8.00137C5.78077 7.44909 6.22849 7.00137 6.78077 7.00137H12.0907L9.51206 4.42276C9.12154 4.03224 9.12154 3.39907 9.51206 3.00855Z" fill="white"/>
</svg>
