<svg width="21" height="20" viewBox="0 0 21 20" fill="none" xmlns="http://www.w3.org/2000/svg">
<path d="M8.51074 5.5C8.51074 7.15685 7.1676 8.5 5.51074 8.5C3.85389 8.5 2.51074 7.15685 2.51074 5.5C2.51074 3.84315 3.85389 2.5 5.51074 2.5C7.1676 2.5 8.51074 3.84315 8.51074 5.5Z" fill="white"/>
<path d="M17.5107 5.5C17.5107 7.15685 16.1676 8.5 14.5107 8.5C12.8539 8.5 11.5107 7.15685 11.5107 5.5C11.5107 3.84315 12.8539 2.5 14.5107 2.5C16.1676 2.5 17.5107 3.84315 17.5107 5.5Z" fill="white"/>
<path d="M8.51074 14.5C8.51074 16.1569 7.1676 17.5 5.51074 17.5C3.85389 17.5 2.51074 16.1569 2.51074 14.5C2.51074 12.8431 3.85389 11.5 5.51074 11.5C7.1676 11.5 8.51074 12.8431 8.51074 14.5Z" fill="white"/>
<path d="M17.5107 14.5C17.5107 16.1569 16.1676 17.5 14.5107 17.5C12.8539 17.5 11.5107 16.1569 11.5107 14.5C11.5107 12.8431 12.8539 11.5 14.5107 11.5C16.1676 11.5 17.5107 12.8431 17.5107 14.5Z" fill="white"/>
</svg>
