<svg width="14" height="15" viewBox="0 0 14 15" fill="none" xmlns="http://www.w3.org/2000/svg">
<path fill-rule="evenodd" clip-rule="evenodd" d="M6.7119 2.9859C6.39597 2.9859 6.13985 3.24202 6.13985 3.55795C6.13985 4.11014 5.69228 4.55782 5.14009 4.55795C4.55867 4.55809 4.18292 4.56118 3.89944 4.5888C3.62947 4.6151 3.53082 4.65726 3.48267 4.68473C3.33254 4.77036 3.20816 4.89474 3.12253 5.04486C3.08134 5.11709 3.03172 5.25484 3.00955 5.712C4.32337 5.82728 5.35383 6.93036 5.35383 8.2741C5.35383 9.61785 4.32337 10.7209 3.00956 10.8362C3.03173 11.2934 3.08134 11.4311 3.12253 11.5033C3.20816 11.6535 3.33254 11.7778 3.48267 11.8635C3.55489 11.9047 3.69264 11.9543 4.1498 11.9764C4.26509 10.6626 5.36816 9.63218 6.7119 9.63218C8.05565 9.63218 9.15872 10.6626 9.27401 11.9764C9.73116 11.9543 9.86892 11.9047 9.94114 11.8635C10.0913 11.7778 10.2156 11.6535 10.3013 11.5033C10.3287 11.4552 10.3709 11.3565 10.3972 11.0866C10.4248 10.8031 10.4279 10.4273 10.4281 9.84591C10.4282 9.29372 10.8759 8.84615 11.4281 8.84615C11.744 8.84615 12.0001 8.59004 12.0001 8.2741C12.0001 7.95817 11.744 7.70205 11.4281 7.70205C10.8759 7.70205 10.4282 7.25448 10.4281 6.70229C10.4279 6.12086 10.4248 5.74512 10.3972 5.46164C10.3709 5.19167 10.3287 5.09302 10.3013 5.04487C10.2156 4.89474 10.0913 4.77036 9.94114 4.68473C9.89299 4.65726 9.79434 4.61511 9.52437 4.5888C9.24088 4.56118 8.86514 4.55809 8.28371 4.55795C7.73152 4.55782 7.28395 4.11014 7.28395 3.55795C7.28395 3.24202 7.02784 2.9859 6.7119 2.9859ZM5.15251 13.9805C5.69979 13.9735 6.13981 13.5279 6.13983 12.9806L6.13985 12.2042C6.13985 11.8883 6.39597 11.6322 6.7119 11.6322C7.02784 11.6322 7.28395 11.8883 7.28395 12.2042L7.28393 12.9801C7.28391 13.526 7.72175 13.9715 8.26761 13.9804L8.29307 13.9808L8.36055 13.9818C8.4172 13.9826 8.49529 13.9835 8.58093 13.9844C8.74627 13.9859 8.95908 13.9871 9.0938 13.9839C9.73773 13.9687 10.3696 13.9216 10.9321 13.6007C11.3933 13.3376 11.7754 12.9555 12.0385 12.4943C12.2607 12.1048 12.3475 11.694 12.3878 11.2805C12.4065 11.0879 12.4165 10.8764 12.4219 10.6471C13.3489 10.2584 14.0001 9.3423 14.0001 8.2741C14.0001 7.20591 13.3489 6.2898 12.4219 5.90109C12.4165 5.67181 12.4065 5.46026 12.3878 5.26767C12.3475 4.8542 12.2607 4.44345 12.0385 4.05395C11.7754 3.5927 11.3933 3.21056 10.9321 2.94747C10.5426 2.7253 10.1318 2.63852 9.71833 2.59823C9.52574 2.57946 9.31419 2.56946 9.08491 2.56412C8.6962 1.63707 7.7801 0.985901 6.7119 0.985901C5.64371 0.985901 4.7276 1.63707 4.33889 2.56412C4.10962 2.56946 3.89806 2.57946 3.70547 2.59823C3.292 2.63852 2.88126 2.7253 2.49175 2.94747C2.03049 3.21056 1.64836 3.5927 1.38527 4.05395C1.06445 4.6164 1.0173 5.24828 1.00213 5.8922C0.999451 6.00572 1.00007 6.21786 1.00104 6.38564C1.00155 6.473 1.0022 6.55415 1.00272 6.61339L1.00364 6.71025C1.00942 7.25704 1.45333 7.69832 2.00015 7.7002L2.29896 7.70113C2.46308 7.70159 2.65896 7.70205 2.78178 7.70205C3.09771 7.70205 3.35383 7.95817 3.35383 8.2741C3.35383 8.59004 3.09771 8.84615 2.78178 8.84615C2.67271 8.84615 2.47955 8.8457 2.31245 8.84523L2.00732 8.84431C1.45834 8.84249 1.01014 9.28359 1.00368 9.83254L1.00268 9.92783C1.00211 9.98589 1.00141 10.0657 1.00087 10.1524C0.999823 10.3196 0.999205 10.5321 1.00213 10.656C1.0173 11.2999 1.06445 11.9318 1.38527 12.4943C1.64836 12.9555 2.0305 13.3376 2.49175 13.6007C3.0542 13.9216 3.68608 13.9687 4.33001 13.9839C4.43714 13.9864 4.65184 13.9852 4.82061 13.9839C4.90918 13.9831 4.99203 13.9823 5.05267 13.9816L5.15251 13.9805Z" fill="white"/>
</svg>
