<svg width="14" height="15" viewBox="0 0 14 15" fill="none" xmlns="http://www.w3.org/2000/svg">
<path d="M6.99163 6.19574C7.12605 6.19014 7.26123 6.2377 7.35232 6.31643C7.4255 6.37969 7.5 6.48601 7.5 6.69662C7.5 6.90724 7.25234 7.02432 7.13898 7.10893L7.10136 7.13787C6.7301 7.42296 6 7.98359 6 9.10445C6 9.65673 6.44772 10.1044 7 10.1044C7.55228 10.1044 8 9.65673 8 9.10445C8 9.09789 7.99983 9.09172 7.99967 9.08578C7.99758 9.01026 7.99657 8.97347 8.36102 8.69216L8.39863 8.66324C8.7699 8.37814 9.5 7.8175 9.5 6.69662C9.5 5.0307 8.12436 4.14681 6.90837 4.19747C6.23248 4.22563 5.63877 4.5548 5.22561 4.98117C4.81247 5.40751 4.5 6.01385 4.5 6.6966C4.5 7.24889 4.94772 7.6966 5.5 7.6966C6.05228 7.6966 6.5 7.24889 6.5 6.6966C6.5 6.62933 6.53753 6.5013 6.66189 6.37296C6.78623 6.24465 6.91752 6.19882 6.99163 6.19574Z" fill="white"/>
<path d="M6.99331 12.1517C7.49707 12.1517 7.90545 11.7433 7.90545 11.2396C7.90545 10.7358 7.49707 10.3275 6.99331 10.3275C6.48955 10.3275 6.08118 10.7358 6.08118 11.2396C6.08118 11.7433 6.48955 12.1517 6.99331 12.1517Z" fill="white"/>
<path fill-rule="evenodd" clip-rule="evenodd" d="M7 0.9953C3.13401 0.9953 0 4.12931 0 7.9953C0 11.8613 3.13401 14.9953 7 14.9953C10.866 14.9953 14 11.8613 14 7.9953C14 4.12931 10.866 0.9953 7 0.9953ZM2 7.9953C2 5.23388 4.23858 2.9953 7 2.9953C9.76142 2.9953 12 5.23388 12 7.9953C12 10.7567 9.76142 12.9953 7 12.9953C4.23858 12.9953 2 10.7567 2 7.9953Z" fill="white"/>
</svg>
