<svg width="16" height="16" viewBox="0 0 16 16" fill="none" xmlns="http://www.w3.org/2000/svg">
<path d="M8.00534 11.8471C7.45305 11.8471 7.00534 11.3994 7.00534 10.8471V8.56138C7.00534 8.0091 7.45305 7.56138 8.00534 7.56138C8.55762 7.56138 9.00534 8.0091 9.00534 8.56138V10.8471C9.00534 11.3994 8.55762 11.8471 8.00534 11.8471Z" fill="white"/>
<path d="M6.86247 5.13283C6.86247 4.50165 7.37414 3.98997 8.00533 3.98997C8.63651 3.98997 9.14818 4.50165 9.14818 5.13283C9.14818 5.76401 8.63651 6.27569 8.00533 6.27569C7.37414 6.27569 6.86247 5.76401 6.86247 5.13283Z" fill="white"/>
<path fill-rule="evenodd" clip-rule="evenodd" d="M15.8625 7.98995C15.8625 12.3293 12.3447 15.8471 8.00534 15.8471C3.66596 15.8471 0.148193 12.3293 0.148193 7.98995C0.148193 3.65057 3.66596 0.132812 8.00534 0.132812C12.3447 0.132813 15.8625 3.65057 15.8625 7.98995ZM8.00534 13.8471C11.2401 13.8471 13.8625 11.2248 13.8625 7.98995C13.8625 4.75514 11.2401 2.13281 8.00534 2.13281C4.77052 2.13281 2.14819 4.75514 2.14819 7.98995C2.14819 11.2248 4.77052 13.8471 8.00534 13.8471Z" fill="white"/>
</svg>
