<svg width="16" height="18" viewBox="0 0 16 18" fill="none" xmlns="http://www.w3.org/2000/svg">
<path d="M8.15538 5.63992C8.15538 6.24743 7.6629 6.73992 7.05538 6.73992C6.44787 6.73992 5.95538 6.24743 5.95538 5.63992C5.95538 5.0324 6.44787 4.53992 7.05538 4.53992C7.6629 4.53992 8.15538 5.0324 8.15538 5.63992ZM2.70538 5.03992C2.70538 2.96885 4.38432 1.28992 6.45538 1.28992H9.55538C11.6265 1.28992 13.3054 2.96885 13.3054 5.03992V12.9399C13.3054 15.011 11.6264 16.6899 9.55538 16.6899H6.45538C4.38431 16.6899 2.70538 15.011 2.70538 12.9399V5.03992ZM6.45538 2.28992C4.9366 2.28992 3.70538 3.52114 3.70538 5.03992V12.9399C3.70538 14.4587 4.9366 15.6899 6.45538 15.6899H9.55538C11.0742 15.6899 12.3054 14.4587 12.3054 12.9399V5.03992C12.3054 3.52113 11.0742 2.28992 9.55538 2.28992H6.45538Z" fill="white" stroke="white"/>
</svg>
