<svg width="22" height="20" viewBox="0 0 22 20" fill="none" xmlns="http://www.w3.org/2000/svg">
<path fill-rule="evenodd" clip-rule="evenodd" d="M16.3348 13.6231C17.3165 12.7548 18.7806 12.5667 19.9793 13.2589C21.4796 14.1272 21.9958 16.0448 21.1347 17.5306C20.2664 19.0285 18.3464 19.5446 16.8485 18.6763C15.6497 17.9841 15.0829 16.6213 15.3434 15.3381L13.737 14.407L13.7322 14.4119C13.4934 14.6482 13.2329 14.8484 12.9483 15.0124C12.6588 15.1813 12.3404 15.3115 12.0052 15.4032C11.6771 15.4949 11.3419 15.5334 11.0066 15.5334C10.6834 15.5334 10.3529 15.4924 10.0297 15.408C9.69445 15.3236 9.37607 15.1933 9.08662 15.0221C8.79477 14.8581 8.52944 14.6531 8.29065 14.4143L6.68424 15.3453C6.94474 16.6285 6.37792 17.9913 5.17914 18.6835C3.67404 19.5543 1.7613 19.0357 0.892971 17.5378C0.0222296 16.0327 0.540815 14.12 2.03868 13.2517C3.23746 12.5594 4.70156 12.7476 5.68325 13.6159L7.28966 12.6848C7.19801 12.3544 7.15941 12.0215 7.15941 11.6911C7.15941 11.3558 7.20283 11.0157 7.29449 10.6853C7.38132 10.3621 7.51157 10.0557 7.67559 9.77112C7.8396 9.47926 8.04463 9.21394 8.28342 8.97515C8.52944 8.7243 8.802 8.52169 9.09627 8.35043C9.38089 8.184 9.68722 8.05375 10.0104 7.96933V6.11449C8.76823 5.69479 7.87096 4.52496 7.87096 3.14046C7.87096 1.4038 9.27476 0 11.0066 0C12.7384 0 14.1398 1.40862 14.1398 3.14046C14.1398 4.52496 13.2425 5.69479 12.0052 6.11449L12.0003 6.12655V7.97657H12.0124C12.3356 8.0634 12.6419 8.19365 12.9266 8.35767C13.2184 8.52169 13.4837 8.72671 13.7225 8.9655C13.9686 9.20911 14.1784 9.48167 14.3424 9.77112C14.5137 10.0606 14.6439 10.3717 14.7283 10.7022C14.82 11.0326 14.8586 11.3655 14.8586 11.6959C14.8586 12.0264 14.8128 12.3616 14.7283 12.6848V12.6897L16.3348 13.6231ZM2.61516 16.5441C2.92872 17.0892 3.6258 17.2701 4.17091 16.959C4.71603 16.6478 4.90176 15.9483 4.58578 15.4032C4.27222 14.8581 3.57514 14.6772 3.03003 14.9883C2.48491 15.3019 2.30401 15.999 2.61516 16.5441ZM11.0114 2.01163C10.3819 2.01163 9.87053 2.52298 9.87053 3.15252C9.87053 3.77723 10.3819 4.28858 11.0114 4.29341C11.641 4.29341 12.1523 3.78206 12.1523 3.15252C12.1523 2.52298 11.641 2.01163 11.0114 2.01163ZM12.695 12.4581C12.7746 12.2748 12.8277 12.0818 12.8494 11.884C12.8517 11.8642 12.8537 11.8451 12.8558 11.8261C12.8602 11.785 12.8645 11.7445 12.8711 11.6983C12.8711 11.6532 12.8673 11.6118 12.8634 11.5687C12.8619 11.552 12.8604 11.535 12.859 11.5174C12.8397 11.3196 12.7843 11.1194 12.7047 10.9385C12.683 10.8831 12.654 10.8324 12.6202 10.7745C12.5865 10.7215 12.5527 10.6708 12.519 10.6202L12.5189 10.6201C12.3983 10.4537 12.256 10.3114 12.092 10.1932C12.0791 10.185 12.0663 10.1768 12.0536 10.1686C12.0143 10.1433 11.976 10.1186 11.9376 10.0967C11.887 10.0678 11.8291 10.0388 11.7784 10.0171C11.5975 9.93272 11.3973 9.87966 11.1996 9.85795C11.1368 9.85071 11.0741 9.84589 11.0114 9.84589C10.9629 9.84589 10.9116 9.85021 10.8618 9.8544C10.8472 9.85563 10.8327 9.85685 10.8185 9.85795C10.6255 9.88207 10.4325 9.93272 10.2565 10.0123C10.1986 10.034 10.1431 10.063 10.0852 10.0967C10.0321 10.1257 9.98149 10.1594 9.93084 10.1932C9.76682 10.3138 9.61727 10.461 9.49908 10.625C9.46531 10.6708 9.43154 10.7215 9.4026 10.7721C9.36883 10.8228 9.33988 10.8734 9.31818 10.9313C9.23858 11.1146 9.18551 11.3076 9.16381 11.5054C9.15657 11.5681 9.15175 11.6308 9.15175 11.6935C9.15175 11.7405 9.15582 11.7876 9.15989 11.8346C9.16124 11.8503 9.1626 11.866 9.16381 11.8816C9.1831 12.0818 9.23858 12.2748 9.31818 12.4557C9.34471 12.5112 9.37365 12.5691 9.4026 12.6197C9.43637 12.6728 9.47013 12.7234 9.5039 12.7741C9.62209 12.9333 9.7644 13.0756 9.92359 13.1938C9.97425 13.2275 10.0249 13.2613 10.0828 13.2951C10.1261 13.315 10.1681 13.3362 10.2108 13.3577C10.2251 13.365 10.2395 13.3722 10.254 13.3795C10.4374 13.4591 10.6303 13.517 10.8281 13.5339C10.8836 13.5411 10.9463 13.5459 11.009 13.5459C11.0669 13.5459 11.1272 13.5459 11.1851 13.5411C11.3901 13.517 11.5879 13.4663 11.776 13.3819C11.8267 13.3602 11.8846 13.3313 11.9352 13.3023C11.9931 13.2686 12.0438 13.2348 12.0944 13.201C12.2536 13.0877 12.3959 12.9453 12.5093 12.7861C12.5228 12.764 12.5363 12.7425 12.5498 12.7211C12.5701 12.689 12.5903 12.6569 12.6106 12.6221C12.6187 12.6067 12.6276 12.5909 12.6368 12.5746C12.6578 12.5375 12.6799 12.4984 12.695 12.4581ZM17.8447 16.959C18.3898 17.2773 19.0893 17.0892 19.4004 16.5441C19.714 15.999 19.5259 15.3019 18.9856 14.9883C18.4405 14.6699 17.741 14.8581 17.4298 15.4032C17.1114 15.9483 17.2996 16.6478 17.8447 16.959Z" fill="white"/>
<path fill-rule="evenodd" clip-rule="evenodd" d="M4.64126 9.4262C5.35763 9.84106 6.27661 9.59745 6.69148 8.87626C7.10635 8.15988 6.86273 7.2409 6.14154 6.82603C5.42034 6.41116 4.50619 6.65478 4.09132 7.37597C3.67645 8.09717 3.92489 9.01133 4.64126 9.4262ZM4.95965 7.87526C5.09472 7.63647 5.40346 7.55205 5.63984 7.69436C5.87863 7.82944 5.96305 8.13817 5.82074 8.37455C5.68567 8.61334 5.37693 8.69776 5.14055 8.55546C4.90176 8.42038 4.81734 8.11405 4.95965 7.87526Z" fill="white"/>
<path fill-rule="evenodd" clip-rule="evenodd" d="M17.9556 8.87626C17.5408 9.59745 16.6218 9.84106 15.9054 9.4262C15.189 9.01133 14.9454 8.09717 15.3555 7.37597C15.7703 6.65478 16.6845 6.41116 17.4057 6.82603C18.1269 7.2409 18.3705 8.15988 17.9556 8.87626ZM16.9016 7.69436C16.6652 7.55205 16.3565 7.63647 16.2214 7.87526C16.0863 8.11405 16.1659 8.42038 16.4023 8.55546C16.6387 8.69776 16.9474 8.61334 17.0825 8.37455C17.2248 8.13817 17.1404 7.82944 16.9016 7.69436Z" fill="white"/>
<path fill-rule="evenodd" clip-rule="evenodd" d="M9.76199 17.7477C10.1769 17.0265 11.0958 16.7829 11.8122 17.1977C12.5262 17.6126 12.7698 18.5268 12.3622 19.248C11.9473 19.9692 11.0283 20.2128 10.3119 19.7979C9.59073 19.383 9.34712 18.4641 9.76199 17.7477ZM10.8136 18.9272C11.05 19.0695 11.3588 18.9851 11.4938 18.7463C11.6289 18.5026 11.5493 18.2036 11.3129 18.0661C11.0765 17.9238 10.7678 18.0082 10.6327 18.247C10.4904 18.4834 10.5748 18.7921 10.8136 18.9272Z" fill="white"/>
</svg>
