<svg width="17" height="17" viewBox="0 0 17 17" fill="none" xmlns="http://www.w3.org/2000/svg">
<path fill-rule="evenodd" clip-rule="evenodd" d="M11.5405 1.17289C12.0722 1.0233 12.6244 1.33302 12.774 1.86467L14.092 6.54896C14.1638 6.80426 14.1313 7.07764 14.0015 7.30896C13.8718 7.54028 13.6555 7.71059 13.4002 7.78242L8.71589 9.10039C8.18425 9.24997 7.632 8.94025 7.48242 8.40861C7.33284 7.87696 7.64256 7.32472 8.1742 7.17514L10.6285 6.4846C10.093 6.13177 9.4737 5.88696 8.79531 5.78593C6.30632 5.41525 3.9881 7.13247 3.61742 9.62146C3.24674 12.1104 4.96397 14.4287 7.45295 14.7993C9.71902 15.1368 11.8452 13.7429 12.4861 11.6118C12.6452 11.083 13.2029 10.7832 13.7318 10.9422C14.2607 11.1013 14.5605 11.659 14.4014 12.1879C13.4784 15.2566 10.4212 17.2635 7.15834 16.7775C3.57684 16.2441 1.10585 12.9084 1.63924 9.32685C2.17263 5.74534 5.50841 3.27435 9.08992 3.80774C9.96149 3.93755 10.7687 4.23402 11.4829 4.66019L10.8487 2.40635C10.6992 1.87471 11.0089 1.32247 11.5405 1.17289Z" fill="white"/>
</svg>
