<svg width="14" height="14" viewBox="0 0 14 14" fill="none" xmlns="http://www.w3.org/2000/svg">
<path fill-rule="evenodd" clip-rule="evenodd" d="M3.93968 0.0350809C4.47132 0.184713 4.78104 0.73714 4.63146 1.26896L4.15839 2.95091C4.72897 2.64966 5.35896 2.43827 6.0317 2.33805C9.23379 1.861 12.2162 4.07097 12.6931 7.27414C13.17 10.4773 10.9607 13.4607 7.75864 13.9378C4.84136 14.3724 2.10808 12.5774 1.28287 9.83283C1.1238 9.30377 1.42359 8.74589 1.95247 8.58676C2.48135 8.42764 3.03904 8.72753 3.19811 9.25659C3.74132 11.0633 5.54353 12.245 7.46404 11.9589C9.57361 11.6446 11.0291 9.67914 10.7149 7.56885C10.4007 5.45856 8.43588 4.00261 6.3263 4.31689C5.85067 4.38775 5.40952 4.54194 5.01447 4.76229L6.88521 5.28882C7.41685 5.43845 7.72657 5.99088 7.57699 6.5227C7.42741 7.05452 6.87517 7.36434 6.34353 7.21471L2.24478 6.0611C1.98948 5.98925 1.77316 5.81888 1.64343 5.58748C1.5137 5.35609 1.48117 5.08261 1.553 4.82722L2.70622 0.727094C2.8558 0.195273 3.40804 -0.114552 3.93968 0.0350809Z" fill="#47A1FF"/>
</svg>
