<svg width="16" height="17" viewBox="0 0 16 17" fill="none" xmlns="http://www.w3.org/2000/svg">
<path fill-rule="evenodd" clip-rule="evenodd" d="M7.33704 2.50134C4.66562 2.50134 2.5 4.66696 2.5 7.33839C2.5 10.0098 4.66562 12.1754 7.33704 12.1754C10.0085 12.1754 12.1741 10.0098 12.1741 7.33839C12.1741 4.66696 10.0085 2.50134 7.33704 2.50134ZM0.5 7.33839C0.5 3.56239 3.56105 0.501343 7.33704 0.501343C11.113 0.501343 14.1741 3.56239 14.1741 7.33839C14.1741 8.86604 13.6731 10.2767 12.8264 11.4149L15.2071 13.7957C15.5976 14.1862 15.5976 14.8194 15.2071 15.2099C14.8166 15.6004 14.1834 15.6004 13.7929 15.2099L11.4119 12.8289C10.274 13.6749 8.86396 14.1754 7.33704 14.1754C3.56105 14.1754 0.5 11.1144 0.5 7.33839Z" fill="white"/>
</svg>
