<svg width="16" height="17" viewBox="0 0 16 17" fill="none" xmlns="http://www.w3.org/2000/svg">
<path fill-rule="evenodd" clip-rule="evenodd" d="M15.6869 3.70667C16.0774 4.0972 16.0774 4.73036 15.6869 5.12089L12.2722 8.53552C11.8817 8.92604 11.2485 8.92605 10.858 8.53552C10.4675 8.145 10.4675 7.51183 10.858 7.12131L12.5655 5.41378H6.10171C5.54943 5.41378 5.10171 4.96606 5.10171 4.41378C5.10171 3.86149 5.54943 3.41378 6.10171 3.41378L12.5655 3.41378L10.858 1.70625C10.4675 1.31573 10.4675 0.682563 10.858 0.292039C11.2485 -0.0984856 11.8817 -0.0984856 12.2722 0.292039L15.6869 3.70667ZM10.8822 11.5845C10.8822 12.1368 10.4345 12.5845 9.8822 12.5845L3.41836 12.5845L5.12589 14.292C5.51642 14.6826 5.51642 15.3157 5.12589 15.7063C4.73537 16.0968 4.1022 16.0968 3.71168 15.7063L0.297044 12.2916C0.109508 12.1041 0.00415038 11.8497 0.00415039 11.5845C0.0041504 11.3193 0.109508 11.0649 0.297044 10.8774L3.71168 7.46277C4.1022 7.07225 4.73537 7.07225 5.12589 7.46277C5.51642 7.85329 5.51642 8.48646 5.12589 8.87698L3.41836 10.5845L9.8822 10.5845C10.4345 10.5845 10.8822 11.0322 10.8822 11.5845Z" fill="white"/>
</svg>
