<svg width="14" height="15" viewBox="0 0 14 15" fill="none" xmlns="http://www.w3.org/2000/svg">
<path fill-rule="evenodd" clip-rule="evenodd" d="M7 2.9859C4.23858 2.9859 2 5.22448 2 7.9859C2 10.7473 4.23858 12.9859 7 12.9859C9.76142 12.9859 12 10.7473 12 7.9859C12 5.22448 9.76142 2.9859 7 2.9859ZM0 7.9859C0 4.11991 3.13401 0.985901 7 0.985901C10.866 0.985901 14 4.11991 14 7.9859C14 11.8519 10.866 14.9859 7 14.9859C3.13401 14.9859 0 11.8519 0 7.9859ZM7 4.4859C7.55228 4.4859 8 4.93362 8 5.4859V7.4859C8 8.03819 7.55228 8.4859 7 8.4859C6.44772 8.4859 6 8.03819 6 7.4859V5.4859C6 4.93362 6.44772 4.4859 7 4.4859Z" fill="white"/>
<path d="M8.00004 10.4859C8.00004 11.0382 7.55233 11.4859 7.00004 11.4859C6.44776 11.4859 6.00004 11.0382 6.00004 10.4859C6.00004 9.93362 6.44776 9.4859 7.00004 9.4859C7.55233 9.4859 8.00004 9.93362 8.00004 10.4859Z" fill="white"/>
<path fill-rule="evenodd" clip-rule="evenodd" d="M7.00004 11.4859C7.55233 11.4859 8.00004 11.0382 8.00004 10.4859C8.00004 9.93362 7.55233 9.4859 7.00004 9.4859C6.44776 9.4859 6.00004 9.93362 6.00004 10.4859C6.00004 11.0382 6.44776 11.4859 7.00004 11.4859Z" fill="white"/>
</svg>
