<svg width="49" height="34" viewBox="0 0 49 34" fill="none" xmlns="http://www.w3.org/2000/svg">
<g clip-path="url(#clip0_162_828)">
<path d="M13.2639 9.79837C19.5261 3.66714 29.6791 3.66714 35.9413 9.79837L36.695 10.5363C37.0081 10.8428 37.0081 11.3399 36.695 11.6464L34.1169 14.1707C33.9603 14.3239 33.7065 14.3239 33.5499 14.1707L32.5128 13.1552C28.1441 8.87791 21.0611 8.87791 16.6924 13.1552L15.5817 14.2427C15.4252 14.3959 15.1713 14.3959 15.0148 14.2427L12.4366 11.7184C12.1235 11.4119 12.1235 10.9149 12.4366 10.6083L13.2639 9.79837ZM41.2732 15.0187L43.5678 17.2653C43.8809 17.5719 43.8809 18.0689 43.5678 18.3755L33.2215 28.5055C32.9083 28.8121 32.4007 28.8121 32.0876 28.5055L24.7444 21.3159C24.6661 21.2393 24.5392 21.2393 24.4609 21.3159L17.1179 28.5055C16.8048 28.8121 16.2971 28.8121 15.984 28.5055L5.63742 18.3753C5.32431 18.0688 5.32431 17.5717 5.63742 17.2652L7.93198 15.0186C8.24509 14.712 8.75274 14.712 9.06585 15.0186L16.4091 22.2083C16.4874 22.2849 16.6143 22.2849 16.6926 22.2083L24.0355 15.0186C24.3486 14.712 24.8563 14.712 25.1694 15.0186L32.5127 22.2083C32.591 22.2849 32.7179 22.2849 32.7962 22.2083L40.1393 15.0187C40.4524 14.7122 40.9601 14.7122 41.2732 15.0187Z" fill="white"/>
</g>
<defs>
<clipPath id="clip0_162_828">
<rect width="48" height="32" fill="white" transform="translate(0.602539 1)"/>
</clipPath>
</defs>
</svg>
